<svg xmlns="http://www.w3.org/2000/svg" xmlns:xlink="http://www.w3.org/1999/xlink" width="1000" zoomAndPan="magnify" viewBox="0 0 750 225" height="300" preserveAspectRatio="xMidYMid meet" version="1.0"><defs><g/><clipPath id="012a5e13c2"><path d="M 391.996094 9.539062 L 478.996094 9.539062 L 478.996094 144 L 391.996094 144 Z M 391.996094 9.539062 " clip-rule="nonzero"/></clipPath><clipPath id="02b5cb3dea"><path d="M 430 81 L 441 81 L 441 175.289062 L 430 175.289062 Z M 430 81 " clip-rule="nonzero"/></clipPath><clipPath id="89e9356d81"><path d="M 402.792969 142 L 468.792969 142 L 468.792969 199.613281 L 402.792969 199.613281 Z M 402.792969 142 " clip-rule="nonzero"/></clipPath><clipPath id="876bc7a41d"><path d="M 428.101562 81.359375 L 443.132812 81.359375 L 443.132812 149.636719 L 428.101562 149.636719 Z M 428.101562 81.359375 " clip-rule="nonzero"/></clipPath><clipPath id="caf3fffd3e"><path d="M 583.753906 9.539062 L 670.753906 9.539062 L 670.753906 144 L 583.753906 144 Z M 583.753906 9.539062 " clip-rule="nonzero"/></clipPath><clipPath id="e98bc33051"><path d="M 622 81 L 633 81 L 633 175.289062 L 622 175.289062 Z M 622 81 " clip-rule="nonzero"/></clipPath><clipPath id="d7ee8a9da4"><path d="M 594.546875 142 L 660.546875 142 L 660.546875 199.613281 L 594.546875 199.613281 Z M 594.546875 142 " clip-rule="nonzero"/></clipPath><clipPath id="3e9321abce"><path d="M 619.855469 81.359375 L 634.886719 81.359375 L 634.886719 149.636719 L 619.855469 149.636719 Z M 619.855469 81.359375 " clip-rule="nonzero"/></clipPath></defs><g fill="#ffffff" fill-opacity="1"><g transform="translate(398.193586, 208.714821)"><g><path d="M 74.828125 -67.714844 L 53.230469 -67.714844 L 37.730469 -15.371094 L 22.105469 -67.714844 L 0 -67.714844 L 26.550781 0 L 48.402344 0 Z M 74.828125 -67.714844 "/></g></g></g><g clip-path="url(#012a5e13c2)"><path fill="#00ce81" d="M 435.597656 9.550781 C 409.902344 20.855469 391.964844 46.53125 391.964844 76.410156 C 391.964844 106.28125 409.902344 131.957031 435.597656 143.269531 C 461.289062 131.957031 479.230469 106.28125 479.230469 76.410156 C 479.230469 46.53125 461.289062 20.855469 435.597656 9.550781 " fill-opacity="1" fill-rule="nonzero"/></g><g clip-path="url(#02b5cb3dea)"><path stroke-linecap="round" transform="matrix(0.082219, 0, 0, -0.082219, 255.348477, 264.593877)" fill="none" stroke-linejoin="miter" d="M 2192.305226 2167.706408 L 2192.305226 1139.916126 " stroke="#99d76f" stroke-width="113.419998" stroke-opacity="1" stroke-miterlimit="10"/></g><g clip-path="url(#89e9356d81)"><path fill="#00ce81" d="M 468.792969 142.21875 L 435.65625 199.609375 L 402.523438 142.21875 Z M 468.792969 142.21875 " fill-opacity="1" fill-rule="nonzero"/></g><g clip-path="url(#876bc7a41d)"><path fill="#ffffff" d="M 428.101562 81.359375 L 443.132812 81.359375 L 443.132812 149.65625 L 428.101562 149.65625 Z M 428.101562 81.359375 " fill-opacity="1" fill-rule="nonzero"/></g><g fill="#ffffff" fill-opacity="1"><g transform="translate(-3.344177, 209.775791)"><g><path d="M 87.203125 -46.5 C 87.203125 -31.476562 82.925781 -19.972656 74.375 -11.984375 C 65.820312 -3.992188 53.472656 0 37.328125 0 L 11.484375 0 L 11.484375 -91.265625 L 40.140625 -91.265625 C 55.035156 -91.265625 66.601562 -87.332031 74.84375 -79.46875 C 83.082031 -71.601562 87.203125 -60.613281 87.203125 -46.5 Z M 67.109375 -46 C 67.109375 -65.601562 58.453125 -75.40625 41.140625 -75.40625 L 30.84375 -75.40625 L 30.84375 -15.984375 L 39.140625 -15.984375 C 57.785156 -15.984375 67.109375 -25.988281 67.109375 -46 Z M 67.109375 -46 "/></g></g></g><g fill="#ffffff" fill-opacity="1"><g transform="translate(93.330607, 209.775791)"><g><path d="M 38.890625 -57.546875 C 34.847656 -57.546875 31.679688 -56.265625 29.390625 -53.703125 C 27.109375 -51.148438 25.800781 -47.523438 25.46875 -42.828125 L 52.1875 -42.828125 C 52.101562 -47.523438 50.875 -51.148438 48.5 -53.703125 C 46.125 -56.265625 42.921875 -57.546875 38.890625 -57.546875 Z M 41.578125 1.25 C 30.335938 1.25 21.554688 -1.847656 15.234375 -8.046875 C 8.910156 -14.253906 5.75 -23.035156 5.75 -34.390625 C 5.75 -46.085938 8.671875 -55.128906 14.515625 -61.515625 C 20.359375 -67.898438 28.441406 -71.09375 38.765625 -71.09375 C 48.628906 -71.09375 56.304688 -68.285156 61.796875 -62.671875 C 67.296875 -57.054688 70.046875 -49.296875 70.046875 -39.390625 L 70.046875 -30.15625 L 25.03125 -30.15625 C 25.238281 -24.738281 26.835938 -20.507812 29.828125 -17.46875 C 32.828125 -14.4375 37.035156 -12.921875 42.453125 -12.921875 C 46.648438 -12.921875 50.617188 -13.359375 54.359375 -14.234375 C 58.109375 -15.109375 62.023438 -16.503906 66.109375 -18.421875 L 66.109375 -3.6875 C 62.773438 -2.019531 59.210938 -0.78125 55.421875 0.03125 C 51.640625 0.84375 47.023438 1.25 41.578125 1.25 Z M 41.578125 1.25 "/></g></g></g><g fill="#ffffff" fill-opacity="1"><g transform="translate(170.904737, 209.775791)"><g><path d="M 58.671875 -20.71875 C 58.671875 -13.5625 56.1875 -8.109375 51.21875 -4.359375 C 46.25 -0.617188 38.8125 1.25 28.90625 1.25 C 23.820312 1.25 19.488281 0.90625 15.90625 0.21875 C 12.332031 -0.46875 8.988281 -1.476562 5.875 -2.8125 L 5.875 -18.546875 C 9.40625 -16.878906 13.382812 -15.484375 17.8125 -14.359375 C 22.25 -13.234375 26.15625 -12.671875 29.53125 -12.671875 C 36.4375 -12.671875 39.890625 -14.671875 39.890625 -18.671875 C 39.890625 -20.160156 39.429688 -21.375 38.515625 -22.3125 C 37.597656 -23.25 36.015625 -24.3125 33.765625 -25.5 C 31.523438 -26.6875 28.53125 -28.070312 24.78125 -29.65625 C 19.414062 -31.894531 15.472656 -33.972656 12.953125 -35.890625 C 10.429688 -37.804688 8.597656 -40 7.453125 -42.46875 C 6.316406 -44.945312 5.75 -48 5.75 -51.625 C 5.75 -57.820312 8.148438 -62.613281 12.953125 -66 C 17.753906 -69.394531 24.566406 -71.09375 33.390625 -71.09375 C 41.796875 -71.09375 49.972656 -69.265625 57.921875 -65.609375 L 52.1875 -51.875 C 48.6875 -53.375 45.414062 -54.601562 42.375 -55.5625 C 39.34375 -56.519531 36.242188 -57 33.078125 -57 C 27.460938 -57 24.65625 -55.476562 24.65625 -52.4375 C 24.65625 -50.726562 25.5625 -49.25 27.375 -48 C 29.1875 -46.75 33.148438 -44.898438 39.265625 -42.453125 C 44.710938 -40.242188 48.707031 -38.179688 51.25 -36.265625 C 53.789062 -34.347656 55.660156 -32.140625 56.859375 -29.640625 C 58.066406 -27.148438 58.671875 -24.175781 58.671875 -20.71875 Z M 58.671875 -20.71875 "/></g></g></g><g fill="#ffffff" fill-opacity="1"><g transform="translate(236.494131, 209.775791)"><g><path d="M 38.890625 -57.546875 C 34.847656 -57.546875 31.679688 -56.265625 29.390625 -53.703125 C 27.109375 -51.148438 25.800781 -47.523438 25.46875 -42.828125 L 52.1875 -42.828125 C 52.101562 -47.523438 50.875 -51.148438 48.5 -53.703125 C 46.125 -56.265625 42.921875 -57.546875 38.890625 -57.546875 Z M 41.578125 1.25 C 30.335938 1.25 21.554688 -1.847656 15.234375 -8.046875 C 8.910156 -14.253906 5.75 -23.035156 5.75 -34.390625 C 5.75 -46.085938 8.671875 -55.128906 14.515625 -61.515625 C 20.359375 -67.898438 28.441406 -71.09375 38.765625 -71.09375 C 48.628906 -71.09375 56.304688 -68.285156 61.796875 -62.671875 C 67.296875 -57.054688 70.046875 -49.296875 70.046875 -39.390625 L 70.046875 -30.15625 L 25.03125 -30.15625 C 25.238281 -24.738281 26.835938 -20.507812 29.828125 -17.46875 C 32.828125 -14.4375 37.035156 -12.921875 42.453125 -12.921875 C 46.648438 -12.921875 50.617188 -13.359375 54.359375 -14.234375 C 58.109375 -15.109375 62.023438 -16.503906 66.109375 -18.421875 L 66.109375 -3.6875 C 62.773438 -2.019531 59.210938 -0.78125 55.421875 0.03125 C 51.640625 0.84375 47.023438 1.25 41.578125 1.25 Z M 41.578125 1.25 "/></g></g></g><g fill="#ffffff" fill-opacity="1"><g transform="translate(314.06825, 209.775791)"><g><path d="M 74.40625 0 L 55.375 0 L 55.375 -40.765625 C 55.375 -45.796875 54.476562 -49.570312 52.6875 -52.09375 C 50.894531 -54.613281 48.046875 -55.875 44.140625 -55.875 C 38.804688 -55.875 34.953125 -54.09375 32.578125 -50.53125 C 30.210938 -46.96875 29.03125 -41.066406 29.03125 -32.828125 L 29.03125 0 L 9.984375 0 L 9.984375 -69.796875 L 24.53125 -69.796875 L 27.09375 -60.859375 L 28.15625 -60.859375 C 30.28125 -64.234375 33.203125 -66.78125 36.921875 -68.5 C 40.648438 -70.226562 44.882812 -71.09375 49.625 -71.09375 C 57.738281 -71.09375 63.894531 -68.894531 68.09375 -64.5 C 72.300781 -60.113281 74.40625 -53.78125 74.40625 -45.5 Z M 74.40625 0 "/></g></g></g><g fill="#ffffff" fill-opacity="1"><g transform="translate(400.141555, 209.775791)"><g/></g></g><g fill="#ffffff" fill-opacity="1"><g transform="translate(435.394621, 209.775791)"><g/></g></g><g fill="#ffffff" fill-opacity="1"><g transform="translate(470.655839, 209.775791)"><g><path d="M 25.15625 -35.015625 C 25.15625 -28.109375 26.289062 -22.882812 28.5625 -19.34375 C 30.832031 -15.8125 34.523438 -14.046875 39.640625 -14.046875 C 44.710938 -14.046875 48.363281 -15.800781 50.59375 -19.3125 C 52.820312 -22.832031 53.9375 -28.066406 53.9375 -35.015625 C 53.9375 -41.921875 52.8125 -47.101562 50.5625 -50.5625 C 48.3125 -54.019531 44.628906 -55.75 39.515625 -55.75 C 34.441406 -55.75 30.78125 -54.03125 28.53125 -50.59375 C 26.28125 -47.15625 25.15625 -41.960938 25.15625 -35.015625 Z M 73.40625 -35.015625 C 73.40625 -23.660156 70.410156 -14.773438 64.421875 -8.359375 C 58.429688 -1.953125 50.085938 1.25 39.390625 1.25 C 32.691406 1.25 26.78125 -0.210938 21.65625 -3.140625 C 16.539062 -6.078125 12.609375 -10.289062 9.859375 -15.78125 C 7.117188 -21.28125 5.75 -27.691406 5.75 -35.015625 C 5.75 -46.421875 8.722656 -55.285156 14.671875 -61.609375 C 20.617188 -67.929688 28.984375 -71.09375 39.765625 -71.09375 C 46.460938 -71.09375 52.367188 -69.632812 57.484375 -66.71875 C 62.609375 -63.8125 66.539062 -59.628906 69.28125 -54.171875 C 72.03125 -48.722656 73.40625 -42.335938 73.40625 -35.015625 Z M 73.40625 -35.015625 "/></g></g></g><g fill="#ffffff" fill-opacity="1"><g transform="translate(551.850348, 209.775791)"><g><path d="M 29.03125 0 L 9.984375 0 L 9.984375 -97.125 L 29.03125 -97.125 Z M 29.03125 0 "/></g></g></g><g fill="#ffffff" fill-opacity="1"><g transform="translate(592.916674, 209.775791)"><g/></g></g><g fill="#ffffff" fill-opacity="1"><g transform="translate(628.16974, 209.775791)"><g/></g></g><g fill="#ffffff" fill-opacity="1"><g transform="translate(663.430971, 209.775791)"><g><path d="M 38.890625 -57.546875 C 34.847656 -57.546875 31.679688 -56.265625 29.390625 -53.703125 C 27.109375 -51.148438 25.800781 -47.523438 25.46875 -42.828125 L 52.1875 -42.828125 C 52.101562 -47.523438 50.875 -51.148438 48.5 -53.703125 C 46.125 -56.265625 42.921875 -57.546875 38.890625 -57.546875 Z M 41.578125 1.25 C 30.335938 1.25 21.554688 -1.847656 15.234375 -8.046875 C 8.910156 -14.253906 5.75 -23.035156 5.75 -34.390625 C 5.75 -46.085938 8.671875 -55.128906 14.515625 -61.515625 C 20.359375 -67.898438 28.441406 -71.09375 38.765625 -71.09375 C 48.628906 -71.09375 56.304688 -68.285156 61.796875 -62.671875 C 67.296875 -57.054688 70.046875 -49.296875 70.046875 -39.390625 L 70.046875 -30.15625 L 25.03125 -30.15625 C 25.238281 -24.738281 26.835938 -20.507812 29.828125 -17.46875 C 32.828125 -14.4375 37.035156 -12.921875 42.453125 -12.921875 C 46.648438 -12.921875 50.617188 -13.359375 54.359375 -14.234375 C 58.109375 -15.109375 62.023438 -16.503906 66.109375 -18.421875 L 66.109375 -3.6875 C 62.773438 -2.019531 59.210938 -0.78125 55.421875 0.03125 C 51.640625 0.84375 47.023438 1.25 41.578125 1.25 Z M 41.578125 1.25 "/></g></g></g><g fill="#ffffff" fill-opacity="1"><g transform="translate(589.949159, 208.714821)"><g><path d="M 74.828125 -67.714844 L 53.230469 -67.714844 L 37.730469 -15.371094 L 22.105469 -67.714844 L 0 -67.714844 L 26.550781 0 L 48.402344 0 Z M 74.828125 -67.714844 "/></g></g></g><g clip-path="url(#caf3fffd3e)"><path fill="#00ce81" d="M 627.351562 9.550781 C 601.660156 20.855469 583.71875 46.53125 583.71875 76.410156 C 583.71875 106.28125 601.660156 131.957031 627.351562 143.269531 C 653.046875 131.957031 670.988281 106.28125 670.988281 76.410156 C 670.988281 46.53125 653.046875 20.855469 627.351562 9.550781 " fill-opacity="1" fill-rule="nonzero"/></g><g clip-path="url(#e98bc33051)"><path stroke-linecap="round" transform="matrix(0.082219, 0, 0, -0.082219, 447.104045, 264.593877)" fill="none" stroke-linejoin="miter" d="M 2192.285005 2167.706408 L 2192.285005 1139.916126 " stroke="#99d76f" stroke-width="113.419998" stroke-opacity="1" stroke-miterlimit="10"/></g><g clip-path="url(#d7ee8a9da4)"><path fill="#00ce81" d="M 660.546875 142.21875 L 627.414062 199.609375 L 594.277344 142.21875 Z M 660.546875 142.21875 " fill-opacity="1" fill-rule="nonzero"/></g><g clip-path="url(#3e9321abce)"><path fill="#ffffff" d="M 619.855469 81.359375 L 634.886719 81.359375 L 634.886719 149.65625 L 619.855469 149.65625 Z M 619.855469 81.359375 " fill-opacity="1" fill-rule="nonzero"/></g></svg>