<svg xmlns="http://www.w3.org/2000/svg" xmlns:xlink="http://www.w3.org/1999/xlink" width="1080" zoomAndPan="magnify" viewBox="0 0 810 809.999993" height="1080" preserveAspectRatio="xMidYMid meet" version="1.0"><defs><clipPath id="fc993f25e1"><path d="M 195 602 L 764 602 L 764 810 L 195 810 Z M 195 602 " clip-rule="nonzero"/></clipPath><clipPath id="678bff99d8"><path d="M 0 405.027344 C 0 398.398438 0.164062 391.773438 0.488281 385.152344 C 0.8125 378.535156 1.300781 371.925781 1.949219 365.328125 C 2.601562 358.730469 3.410156 352.15625 4.382812 345.597656 C 5.355469 339.039062 6.488281 332.511719 7.78125 326.011719 C 9.074219 319.507812 10.527344 313.042969 12.136719 306.613281 C 13.75 300.183594 15.515625 293.796875 17.441406 287.453125 C 19.363281 281.109375 21.441406 274.820312 23.675781 268.578125 C 25.910156 262.335938 28.292969 256.15625 30.832031 250.03125 C 33.367188 243.90625 36.054688 237.847656 38.886719 231.855469 C 41.722656 225.863281 44.699219 219.945312 47.824219 214.097656 C 50.949219 208.253906 54.214844 202.488281 57.625 196.800781 C 61.03125 191.117188 64.578125 185.519531 68.257812 180.007812 C 71.941406 174.496094 75.757812 169.078125 79.707031 163.753906 C 83.65625 158.429688 87.730469 153.203125 91.9375 148.082031 C 96.140625 142.957031 100.46875 137.9375 104.921875 133.027344 C 109.375 128.117188 113.941406 123.316406 118.628906 118.628906 C 123.316406 113.941406 128.117188 109.375 133.027344 104.921875 C 137.9375 100.46875 142.957031 96.140625 148.082031 91.9375 C 153.203125 87.730469 158.429688 83.65625 163.753906 79.707031 C 169.078125 75.757812 174.496094 71.941406 180.007812 68.257812 C 185.519531 64.578125 191.117188 61.03125 196.800781 57.625 C 202.488281 54.214844 208.253906 50.949219 214.097656 47.824219 C 219.945312 44.699219 225.863281 41.722656 231.855469 38.886719 C 237.847656 36.054688 243.90625 33.367188 250.03125 30.832031 C 256.152344 28.292969 262.335938 25.910156 268.578125 23.675781 C 274.820312 21.441406 281.109375 19.363281 287.453125 17.441406 C 293.796875 15.515625 300.183594 13.75 306.613281 12.136719 C 313.042969 10.527344 319.507812 9.074219 326.011719 7.78125 C 332.511719 6.488281 339.039062 5.355469 345.597656 4.382812 C 352.15625 3.410156 358.730469 2.601562 365.328125 1.949219 C 371.925781 1.300781 378.535156 0.8125 385.152344 0.488281 C 391.773438 0.164062 398.398438 0 405.027344 0 C 411.65625 0 418.28125 0.164062 424.902344 0.488281 C 431.523438 0.8125 438.128906 1.300781 444.726562 1.949219 C 451.324219 2.601562 457.902344 3.410156 464.457031 4.382812 C 471.015625 5.355469 477.542969 6.488281 484.042969 7.78125 C 490.546875 9.074219 497.011719 10.527344 503.441406 12.136719 C 509.871094 13.75 516.257812 15.515625 522.601562 17.441406 C 528.945312 19.363281 535.234375 21.441406 541.476562 23.675781 C 547.71875 25.910156 553.902344 28.292969 560.023438 30.832031 C 566.148438 33.367188 572.207031 36.054688 578.199219 38.886719 C 584.191406 41.722656 590.109375 44.699219 595.957031 47.824219 C 601.800781 50.949219 607.566406 54.214844 613.253906 57.625 C 618.9375 61.03125 624.539062 64.578125 630.050781 68.257812 C 635.558594 71.941406 640.976562 75.757812 646.300781 79.707031 C 651.625 83.65625 656.851562 87.730469 661.972656 91.9375 C 667.097656 96.140625 672.117188 100.46875 677.027344 104.921875 C 681.9375 109.375 686.738281 113.941406 691.425781 118.628906 C 696.113281 123.316406 700.683594 128.117188 705.132812 133.027344 C 709.585938 137.9375 713.914062 142.957031 718.117188 148.082031 C 722.324219 153.203125 726.398438 158.429688 730.347656 163.753906 C 734.296875 169.078125 738.113281 174.496094 741.796875 180.007812 C 745.476562 185.519531 749.023438 191.117188 752.429688 196.800781 C 755.839844 202.488281 759.105469 208.253906 762.230469 214.097656 C 765.355469 219.945312 768.335938 225.863281 771.167969 231.855469 C 774.003906 237.847656 776.6875 243.90625 779.222656 250.03125 C 781.761719 256.15625 784.144531 262.335938 786.378906 268.578125 C 788.613281 274.820312 790.691406 281.109375 792.613281 287.453125 C 794.539062 293.796875 796.304688 300.183594 797.917969 306.613281 C 799.527344 313.042969 800.980469 319.507812 802.273438 326.011719 C 803.566406 332.511719 804.699219 339.039062 805.671875 345.597656 C 806.644531 352.15625 807.457031 358.730469 808.105469 365.328125 C 808.753906 371.925781 809.242188 378.535156 809.566406 385.152344 C 809.894531 391.773438 810.054688 398.398438 810.054688 405.027344 C 810.054688 411.65625 809.894531 418.28125 809.566406 424.902344 C 809.242188 431.523438 808.753906 438.128906 808.105469 444.726562 C 807.457031 451.324219 806.644531 457.902344 805.671875 464.457031 C 804.699219 471.015625 803.566406 477.542969 802.273438 484.042969 C 800.980469 490.546875 799.527344 497.011719 797.917969 503.441406 C 796.304688 509.871094 794.539062 516.257812 792.613281 522.601562 C 790.691406 528.945312 788.613281 535.234375 786.378906 541.476562 C 784.144531 547.71875 781.761719 553.902344 779.222656 560.023438 C 776.6875 566.148438 774.003906 572.207031 771.167969 578.199219 C 768.335938 584.191406 765.355469 590.109375 762.230469 595.957031 C 759.105469 601.800781 755.839844 607.566406 752.429688 613.253906 C 749.023438 618.9375 745.476562 624.539062 741.796875 630.050781 C 738.113281 635.558594 734.296875 640.976562 730.347656 646.300781 C 726.398438 651.625 722.324219 656.851562 718.117188 661.972656 C 713.914062 667.097656 709.585938 672.117188 705.132812 677.027344 C 700.683594 681.9375 696.113281 686.738281 691.425781 691.425781 C 686.738281 696.113281 681.9375 700.683594 677.027344 705.132812 C 672.117188 709.585938 667.097656 713.914062 661.972656 718.117188 C 656.851562 722.324219 651.625 726.398438 646.300781 730.347656 C 640.976562 734.296875 635.558594 738.113281 630.050781 741.796875 C 624.539062 745.476562 618.9375 749.023438 613.253906 752.429688 C 607.566406 755.839844 601.800781 759.105469 595.957031 762.230469 C 590.109375 765.355469 584.191406 768.335938 578.199219 771.167969 C 572.207031 774.003906 566.148438 776.6875 560.023438 779.222656 C 553.902344 781.761719 547.71875 784.144531 541.476562 786.378906 C 535.234375 788.613281 528.945312 790.691406 522.601562 792.613281 C 516.257812 794.539062 509.871094 796.304688 503.441406 797.917969 C 497.011719 799.527344 490.546875 800.980469 484.042969 802.273438 C 477.542969 803.566406 471.015625 804.699219 464.457031 805.671875 C 457.902344 806.644531 451.324219 807.457031 444.726562 808.105469 C 438.128906 808.753906 431.523438 809.242188 424.902344 809.566406 C 418.28125 809.894531 411.65625 810.054688 405.027344 810.054688 C 398.398438 810.054688 391.773438 809.894531 385.152344 809.566406 C 378.535156 809.242188 371.925781 808.753906 365.328125 808.105469 C 358.730469 807.457031 352.15625 806.644531 345.597656 805.671875 C 339.039062 804.699219 332.511719 803.566406 326.011719 802.273438 C 319.507812 800.980469 313.042969 799.527344 306.613281 797.917969 C 300.183594 796.304688 293.796875 794.539062 287.453125 792.613281 C 281.109375 790.691406 274.820312 788.613281 268.578125 786.378906 C 262.335938 784.144531 256.152344 781.761719 250.03125 779.222656 C 243.90625 776.6875 237.847656 774.003906 231.855469 771.167969 C 225.863281 768.335938 219.945312 765.355469 214.097656 762.230469 C 208.253906 759.105469 202.488281 755.839844 196.800781 752.429688 C 191.117188 749.023438 185.519531 745.476562 180.007812 741.796875 C 174.496094 738.113281 169.078125 734.296875 163.753906 730.347656 C 158.429688 726.398438 153.203125 722.324219 148.082031 718.117188 C 142.957031 713.914062 137.9375 709.585938 133.027344 705.132812 C 128.117188 700.683594 123.316406 696.113281 118.628906 691.425781 C 113.941406 686.738281 109.375 681.9375 104.921875 677.027344 C 100.46875 672.117188 96.140625 667.097656 91.9375 661.972656 C 87.730469 656.851562 83.65625 651.625 79.707031 646.300781 C 75.757812 640.976562 71.941406 635.558594 68.257812 630.050781 C 64.578125 624.539062 61.03125 618.9375 57.625 613.253906 C 54.214844 607.566406 50.949219 601.800781 47.824219 595.957031 C 44.699219 590.109375 41.722656 584.191406 38.886719 578.199219 C 36.054688 572.207031 33.367188 566.148438 30.832031 560.023438 C 28.292969 553.902344 25.910156 547.71875 23.675781 541.476562 C 21.441406 535.234375 19.363281 528.945312 17.441406 522.601562 C 15.515625 516.257812 13.75 509.871094 12.136719 503.441406 C 10.527344 497.011719 9.074219 490.546875 7.78125 484.042969 C 6.488281 477.542969 5.355469 471.015625 4.382812 464.457031 C 3.410156 457.902344 2.601562 451.324219 1.949219 444.726562 C 1.300781 438.128906 0.8125 431.523438 0.488281 424.902344 C 0.164062 418.28125 0 411.65625 0 405.027344 Z M 0 405.027344 " clip-rule="nonzero"/></clipPath></defs><path fill="#e9e9e9" d="M 810.054688 405.027344 C 810.054688 411.65625 809.894531 418.28125 809.566406 424.902344 C 809.242188 431.523438 808.753906 438.128906 808.105469 444.726562 C 807.457031 451.324219 806.644531 457.902344 805.671875 464.457031 C 804.699219 471.015625 803.566406 477.542969 802.273438 484.042969 C 800.980469 490.546875 799.527344 497.011719 797.917969 503.441406 C 796.304688 509.871094 794.539062 516.257812 792.613281 522.601562 C 790.691406 528.945312 788.613281 535.234375 786.378906 541.476562 C 784.144531 547.71875 781.761719 553.902344 779.222656 560.023438 C 776.6875 566.148438 774.003906 572.207031 771.167969 578.199219 C 768.335938 584.191406 765.355469 590.109375 762.230469 595.957031 C 759.105469 601.800781 755.839844 607.566406 752.429688 613.253906 C 749.023438 618.9375 745.476562 624.539062 741.796875 630.050781 C 738.113281 635.558594 734.296875 640.976562 730.347656 646.300781 C 726.398438 651.625 722.324219 656.851562 718.117188 661.972656 C 713.914062 667.097656 709.585938 672.117188 705.132812 677.027344 C 700.683594 681.9375 696.113281 686.738281 691.425781 691.425781 C 686.738281 696.113281 681.9375 700.683594 677.027344 705.132812 C 672.117188 709.585938 667.097656 713.914062 661.972656 718.117188 C 656.851562 722.324219 651.625 726.398438 646.300781 730.347656 C 640.976562 734.296875 635.558594 738.113281 630.050781 741.796875 C 624.539062 745.476562 618.9375 749.023438 613.253906 752.429688 C 607.566406 755.839844 601.800781 759.105469 595.957031 762.230469 C 590.109375 765.355469 584.191406 768.335938 578.199219 771.167969 C 572.207031 774.003906 566.148438 776.6875 560.023438 779.222656 C 553.902344 781.761719 547.71875 784.144531 541.476562 786.378906 C 535.234375 788.613281 528.945312 790.691406 522.601562 792.613281 C 516.257812 794.539062 509.871094 796.308594 503.441406 797.917969 C 497.011719 799.527344 490.546875 800.980469 484.042969 802.273438 C 477.542969 803.566406 471.015625 804.699219 464.457031 805.671875 C 457.902344 806.644531 451.324219 807.457031 444.726562 808.105469 C 438.128906 808.753906 431.523438 809.242188 424.902344 809.566406 C 418.28125 809.894531 411.65625 810.054688 405.027344 810.054688 C 398.398438 810.054688 391.773438 809.894531 385.152344 809.566406 C 378.535156 809.242188 371.925781 808.753906 365.328125 808.105469 C 358.730469 807.457031 352.15625 806.644531 345.597656 805.671875 C 339.039062 804.699219 332.511719 803.566406 326.011719 802.273438 C 319.507812 800.980469 313.042969 799.527344 306.613281 797.917969 C 300.183594 796.308594 293.796875 794.539062 287.453125 792.613281 C 281.109375 790.691406 274.820312 788.613281 268.578125 786.378906 C 262.335938 784.144531 256.15625 781.761719 250.03125 779.222656 C 243.90625 776.6875 237.847656 774.003906 231.855469 771.167969 C 225.863281 768.335938 219.945312 765.355469 214.097656 762.230469 C 208.253906 759.105469 202.488281 755.839844 196.800781 752.429688 C 191.117188 749.023438 185.519531 745.476562 180.007812 741.796875 C 174.496094 738.113281 169.078125 734.296875 163.753906 730.347656 C 158.429688 726.398438 153.203125 722.324219 148.082031 718.117188 C 142.957031 713.914062 137.9375 709.585938 133.027344 705.132812 C 128.117188 700.683594 123.316406 696.113281 118.628906 691.425781 C 113.941406 686.738281 109.375 681.9375 104.921875 677.027344 C 100.46875 672.117188 96.140625 667.097656 91.9375 661.972656 C 87.730469 656.851562 83.65625 651.625 79.707031 646.300781 C 75.757812 640.976562 71.941406 635.558594 68.257812 630.050781 C 64.578125 624.539062 61.03125 618.9375 57.625 613.253906 C 54.214844 607.566406 50.949219 601.800781 47.824219 595.957031 C 44.699219 590.109375 41.722656 584.191406 38.886719 578.199219 C 36.054688 572.207031 33.367188 566.148438 30.832031 560.023438 C 28.292969 553.902344 25.910156 547.71875 23.675781 541.476562 C 21.441406 535.234375 19.363281 528.945312 17.441406 522.601562 C 15.515625 516.257812 13.75 509.871094 12.136719 503.441406 C 10.527344 497.011719 9.074219 490.546875 7.78125 484.042969 C 6.488281 477.542969 5.355469 471.015625 4.382812 464.457031 C 3.410156 457.902344 2.601562 451.324219 1.949219 444.726562 C 1.300781 438.128906 0.8125 431.523438 0.488281 424.902344 C 0.164062 418.28125 0 411.65625 0 405.027344 C 0 398.398438 0.164062 391.773438 0.488281 385.152344 C 0.8125 378.535156 1.300781 371.925781 1.949219 365.328125 C 2.601562 358.730469 3.410156 352.15625 4.382812 345.597656 C 5.355469 339.039062 6.488281 332.511719 7.78125 326.011719 C 9.074219 319.507812 10.527344 313.042969 12.136719 306.613281 C 13.75 300.183594 15.515625 293.796875 17.441406 287.453125 C 19.363281 281.109375 21.441406 274.820312 23.675781 268.578125 C 25.910156 262.335938 28.292969 256.15625 30.832031 250.03125 C 33.367188 243.90625 36.054688 237.847656 38.886719 231.855469 C 41.722656 225.863281 44.699219 219.945312 47.824219 214.097656 C 50.949219 208.253906 54.214844 202.488281 57.625 196.800781 C 61.03125 191.117188 64.578125 185.519531 68.257812 180.007812 C 71.941406 174.496094 75.757812 169.078125 79.707031 163.753906 C 83.65625 158.429688 87.730469 153.203125 91.9375 148.082031 C 96.140625 142.957031 100.46875 137.9375 104.921875 133.027344 C 109.375 128.117188 113.941406 123.316406 118.628906 118.628906 C 123.316406 113.941406 128.117188 109.375 133.027344 104.921875 C 137.9375 100.46875 142.957031 96.140625 148.082031 91.9375 C 153.203125 87.730469 158.429688 83.65625 163.753906 79.707031 C 169.078125 75.757812 174.496094 71.941406 180.007812 68.257812 C 185.519531 64.578125 191.117188 61.03125 196.800781 57.625 C 202.488281 54.214844 208.253906 50.949219 214.097656 47.824219 C 219.945312 44.699219 225.863281 41.722656 231.855469 38.886719 C 237.847656 36.054688 243.90625 33.367188 250.03125 30.832031 C 256.15625 28.292969 262.335938 25.910156 268.578125 23.675781 C 274.820312 21.441406 281.109375 19.363281 287.453125 17.441406 C 293.796875 15.515625 300.183594 13.75 306.613281 12.136719 C 313.042969 10.527344 319.507812 9.074219 326.011719 7.78125 C 332.511719 6.488281 339.039062 5.355469 345.597656 4.382812 C 352.15625 3.410156 358.730469 2.601562 365.328125 1.949219 C 371.925781 1.300781 378.535156 0.8125 385.152344 0.488281 C 391.773438 0.164062 398.398438 0 405.027344 0 C 411.65625 0 418.28125 0.164062 424.902344 0.488281 C 431.523438 0.8125 438.128906 1.300781 444.726562 1.949219 C 451.324219 2.601562 457.902344 3.410156 464.457031 4.382812 C 471.015625 5.355469 477.542969 6.488281 484.042969 7.78125 C 490.546875 9.074219 497.011719 10.527344 503.441406 12.136719 C 509.871094 13.75 516.257812 15.515625 522.601562 17.441406 C 528.945312 19.363281 535.234375 21.441406 541.476562 23.675781 C 547.71875 25.910156 553.902344 28.292969 560.023438 30.832031 C 566.148438 33.367188 572.207031 36.054688 578.199219 38.886719 C 584.191406 41.722656 590.109375 44.699219 595.957031 47.824219 C 601.800781 50.949219 607.566406 54.214844 613.253906 57.625 C 618.9375 61.03125 624.539062 64.578125 630.050781 68.257812 C 635.558594 71.941406 640.976562 75.757812 646.300781 79.707031 C 651.625 83.65625 656.851562 87.730469 661.972656 91.9375 C 667.097656 96.140625 672.117188 100.46875 677.027344 104.921875 C 681.9375 109.375 686.738281 113.941406 691.425781 118.628906 C 696.113281 123.316406 700.683594 128.117188 705.132812 133.027344 C 709.585938 137.9375 713.914062 142.957031 718.117188 148.082031 C 722.324219 153.203125 726.398438 158.429688 730.347656 163.753906 C 734.296875 169.078125 738.113281 174.496094 741.796875 180.007812 C 745.476562 185.519531 749.023438 191.117188 752.429688 196.800781 C 755.839844 202.488281 759.105469 208.253906 762.230469 214.097656 C 765.355469 219.945312 768.335938 225.863281 771.167969 231.855469 C 774.003906 237.847656 776.6875 243.90625 779.222656 250.03125 C 781.761719 256.15625 784.144531 262.335938 786.378906 268.578125 C 788.613281 274.820312 790.691406 281.109375 792.613281 287.453125 C 794.539062 293.796875 796.304688 300.183594 797.917969 306.613281 C 799.527344 313.042969 800.980469 319.507812 802.273438 326.011719 C 803.566406 332.511719 804.699219 339.039062 805.671875 345.597656 C 806.644531 352.15625 807.457031 358.730469 808.105469 365.328125 C 808.753906 371.925781 809.242188 378.535156 809.566406 385.152344 C 809.894531 391.773438 810.054688 398.398438 810.054688 405.027344 Z M 810.054688 405.027344 " fill-opacity="1" fill-rule="nonzero"/><path fill="#9df4e6" d="M 810.054688 405.027344 C 810.054688 411.65625 809.894531 418.28125 809.566406 424.902344 C 809.242188 431.523438 808.753906 438.128906 808.105469 444.726562 C 807.457031 451.324219 806.644531 457.902344 805.671875 464.457031 C 804.699219 471.015625 803.566406 477.542969 802.273438 484.042969 C 800.980469 490.546875 799.527344 497.011719 797.917969 503.441406 C 796.304688 509.871094 794.539062 516.257812 792.613281 522.601562 C 790.691406 528.945312 788.613281 535.234375 786.378906 541.476562 C 784.144531 547.71875 781.761719 553.902344 779.222656 560.023438 C 776.6875 566.148438 774.003906 572.207031 771.167969 578.199219 C 768.335938 584.191406 765.355469 590.109375 762.230469 595.957031 C 759.105469 601.800781 755.839844 607.566406 752.429688 613.253906 C 749.023438 618.9375 745.476562 624.539062 741.796875 630.050781 C 738.113281 635.558594 734.296875 640.976562 730.347656 646.300781 C 726.398438 651.625 722.324219 656.851562 718.117188 661.972656 C 713.914062 667.097656 709.585938 672.117188 705.132812 677.027344 C 700.683594 681.9375 696.113281 686.738281 691.425781 691.425781 C 686.738281 696.113281 681.9375 700.683594 677.027344 705.132812 C 672.117188 709.585938 667.097656 713.914062 661.972656 718.117188 C 656.851562 722.324219 651.625 726.398438 646.300781 730.347656 C 640.976562 734.296875 635.558594 738.113281 630.050781 741.796875 C 624.539062 745.476562 618.9375 749.023438 613.253906 752.429688 C 607.566406 755.839844 601.800781 759.105469 595.957031 762.230469 C 590.109375 765.355469 584.191406 768.335938 578.199219 771.167969 C 572.207031 774.003906 566.148438 776.6875 560.023438 779.222656 C 553.902344 781.761719 547.71875 784.144531 541.476562 786.378906 C 535.234375 788.613281 528.945312 790.691406 522.601562 792.613281 C 516.257812 794.539062 509.871094 796.308594 503.441406 797.917969 C 497.011719 799.527344 490.546875 800.980469 484.042969 802.273438 C 477.542969 803.566406 471.015625 804.699219 464.457031 805.671875 C 457.902344 806.644531 451.324219 807.457031 444.726562 808.105469 C 438.128906 808.753906 431.523438 809.242188 424.902344 809.566406 C 418.28125 809.894531 411.65625 810.054688 405.027344 810.054688 C 398.398438 810.054688 391.773438 809.894531 385.152344 809.566406 C 378.535156 809.242188 371.925781 808.753906 365.328125 808.105469 C 358.730469 807.457031 352.15625 806.644531 345.597656 805.671875 C 339.039062 804.699219 332.511719 803.566406 326.011719 802.273438 C 319.507812 800.980469 313.042969 799.527344 306.613281 797.917969 C 300.183594 796.308594 293.796875 794.539062 287.453125 792.613281 C 281.109375 790.691406 274.820312 788.613281 268.578125 786.378906 C 262.335938 784.144531 256.15625 781.761719 250.03125 779.222656 C 243.90625 776.6875 237.847656 774.003906 231.855469 771.167969 C 225.863281 768.335938 219.945312 765.355469 214.097656 762.230469 C 208.253906 759.105469 202.488281 755.839844 196.800781 752.429688 C 191.117188 749.023438 185.519531 745.476562 180.007812 741.796875 C 174.496094 738.113281 169.078125 734.296875 163.753906 730.347656 C 158.429688 726.398438 153.203125 722.324219 148.082031 718.117188 C 142.957031 713.914062 137.9375 709.585938 133.027344 705.132812 C 128.117188 700.683594 123.316406 696.113281 118.628906 691.425781 C 113.941406 686.738281 109.375 681.9375 104.921875 677.027344 C 100.46875 672.117188 96.140625 667.097656 91.9375 661.972656 C 87.730469 656.851562 83.65625 651.625 79.707031 646.300781 C 75.757812 640.976562 71.941406 635.558594 68.257812 630.050781 C 64.578125 624.539062 61.03125 618.9375 57.625 613.253906 C 54.214844 607.566406 50.949219 601.800781 47.824219 595.957031 C 44.699219 590.109375 41.722656 584.191406 38.886719 578.199219 C 36.054688 572.207031 33.367188 566.148438 30.832031 560.023438 C 28.292969 553.902344 25.910156 547.71875 23.675781 541.476562 C 21.441406 535.234375 19.363281 528.945312 17.441406 522.601562 C 15.515625 516.257812 13.75 509.871094 12.136719 503.441406 C 10.527344 497.011719 9.074219 490.546875 7.78125 484.042969 C 6.488281 477.542969 5.355469 471.015625 4.382812 464.457031 C 3.410156 457.902344 2.601562 451.324219 1.949219 444.726562 C 1.300781 438.128906 0.8125 431.523438 0.488281 424.902344 C 0.164062 418.28125 0 411.65625 0 405.027344 C 0 398.398438 0.164062 391.773438 0.488281 385.152344 C 0.8125 378.535156 1.300781 371.925781 1.949219 365.328125 C 2.601562 358.730469 3.410156 352.15625 4.382812 345.597656 C 5.355469 339.039062 6.488281 332.511719 7.78125 326.011719 C 9.074219 319.507812 10.527344 313.042969 12.136719 306.613281 C 13.75 300.183594 15.515625 293.796875 17.441406 287.453125 C 19.363281 281.109375 21.441406 274.820312 23.675781 268.578125 C 25.910156 262.335938 28.292969 256.15625 30.832031 250.03125 C 33.367188 243.90625 36.054688 237.847656 38.886719 231.855469 C 41.722656 225.863281 44.699219 219.945312 47.824219 214.097656 C 50.949219 208.253906 54.214844 202.488281 57.625 196.800781 C 61.03125 191.117188 64.578125 185.519531 68.257812 180.007812 C 71.941406 174.496094 75.757812 169.078125 79.707031 163.753906 C 83.65625 158.429688 87.730469 153.203125 91.9375 148.082031 C 96.140625 142.957031 100.46875 137.9375 104.921875 133.027344 C 109.375 128.117188 113.941406 123.316406 118.628906 118.628906 C 123.316406 113.941406 128.117188 109.375 133.027344 104.921875 C 137.9375 100.46875 142.957031 96.140625 148.082031 91.9375 C 153.203125 87.730469 158.429688 83.65625 163.753906 79.707031 C 169.078125 75.757812 174.496094 71.941406 180.007812 68.257812 C 185.519531 64.578125 191.117188 61.03125 196.800781 57.625 C 202.488281 54.214844 208.253906 50.949219 214.097656 47.824219 C 219.945312 44.699219 225.863281 41.722656 231.855469 38.886719 C 237.847656 36.054688 243.90625 33.367188 250.03125 30.832031 C 256.15625 28.292969 262.335938 25.910156 268.578125 23.675781 C 274.820312 21.441406 281.109375 19.363281 287.453125 17.441406 C 293.796875 15.515625 300.183594 13.75 306.613281 12.136719 C 313.042969 10.527344 319.507812 9.074219 326.011719 7.78125 C 332.511719 6.488281 339.039062 5.355469 345.597656 4.382812 C 352.15625 3.410156 358.730469 2.601562 365.328125 1.949219 C 371.925781 1.300781 378.535156 0.8125 385.152344 0.488281 C 391.773438 0.164062 398.398438 0 405.027344 0 C 411.65625 0 418.28125 0.164062 424.902344 0.488281 C 431.523438 0.8125 438.128906 1.300781 444.726562 1.949219 C 451.324219 2.601562 457.902344 3.410156 464.457031 4.382812 C 471.015625 5.355469 477.542969 6.488281 484.042969 7.78125 C 490.546875 9.074219 497.011719 10.527344 503.441406 12.136719 C 509.871094 13.75 516.257812 15.515625 522.601562 17.441406 C 528.945312 19.363281 535.234375 21.441406 541.476562 23.675781 C 547.71875 25.910156 553.902344 28.292969 560.023438 30.832031 C 566.148438 33.367188 572.207031 36.054688 578.199219 38.886719 C 584.191406 41.722656 590.109375 44.699219 595.957031 47.824219 C 601.800781 50.949219 607.566406 54.214844 613.253906 57.625 C 618.9375 61.03125 624.539062 64.578125 630.050781 68.257812 C 635.558594 71.941406 640.976562 75.757812 646.300781 79.707031 C 651.625 83.65625 656.851562 87.730469 661.972656 91.9375 C 667.097656 96.140625 672.117188 100.46875 677.027344 104.921875 C 681.9375 109.375 686.738281 113.941406 691.425781 118.628906 C 696.113281 123.316406 700.683594 128.117188 705.132812 133.027344 C 709.585938 137.9375 713.914062 142.957031 718.117188 148.082031 C 722.324219 153.203125 726.398438 158.429688 730.347656 163.753906 C 734.296875 169.078125 738.113281 174.496094 741.796875 180.007812 C 745.476562 185.519531 749.023438 191.117188 752.429688 196.800781 C 755.839844 202.488281 759.105469 208.253906 762.230469 214.097656 C 765.355469 219.945312 768.335938 225.863281 771.167969 231.855469 C 774.003906 237.847656 776.6875 243.90625 779.222656 250.03125 C 781.761719 256.15625 784.144531 262.335938 786.378906 268.578125 C 788.613281 274.820312 790.691406 281.109375 792.613281 287.453125 C 794.539062 293.796875 796.304688 300.183594 797.917969 306.613281 C 799.527344 313.042969 800.980469 319.507812 802.273438 326.011719 C 803.566406 332.511719 804.699219 339.039062 805.671875 345.597656 C 806.644531 352.15625 807.457031 358.730469 808.105469 365.328125 C 808.753906 371.925781 809.242188 378.535156 809.566406 385.152344 C 809.894531 391.773438 810.054688 398.398438 810.054688 405.027344 Z M 810.054688 405.027344 " fill-opacity="1" fill-rule="nonzero"/><g clip-path="url(#fc993f25e1)"><g clip-path="url(#678bff99d8)"><path fill="#ffc089" d="M 763.976562 823.128906 C 763.976562 826.738281 763.863281 830.34375 763.636719 833.945312 C 763.40625 837.546875 763.066406 841.144531 762.609375 844.734375 C 762.152344 848.324219 761.582031 851.902344 760.898438 855.472656 C 760.21875 859.039062 759.421875 862.59375 758.511719 866.132812 C 757.605469 869.671875 756.585938 873.1875 755.453125 876.6875 C 754.324219 880.1875 753.082031 883.664062 751.730469 887.117188 C 750.378906 890.566406 748.921875 893.992188 747.351562 897.386719 C 745.785156 900.785156 744.109375 904.148438 742.328125 907.484375 C 740.546875 910.816406 738.660156 914.113281 736.671875 917.375 C 734.679688 920.632812 732.589844 923.855469 730.394531 927.039062 C 728.199219 930.21875 725.90625 933.355469 723.515625 936.449219 C 721.121094 939.546875 718.632812 942.59375 716.046875 945.589844 C 713.460938 948.589844 710.78125 951.539062 708.007812 954.4375 C 705.234375 957.335938 702.371094 960.175781 699.417969 962.964844 C 696.464844 965.753906 693.425781 968.484375 690.300781 971.160156 C 687.175781 973.832031 683.96875 976.441406 680.675781 978.996094 C 677.382812 981.546875 674.015625 984.03125 670.566406 986.453125 C 667.117188 988.878906 663.59375 991.234375 659.996094 993.519531 C 656.398438 995.808594 652.730469 998.027344 648.988281 1000.175781 C 645.25 1002.328125 641.445312 1004.402344 637.578125 1006.40625 C 633.707031 1008.410156 629.773438 1010.339844 625.78125 1012.195312 C 621.789062 1014.050781 617.742188 1015.828125 613.636719 1017.527344 C 609.53125 1019.226562 605.375 1020.851562 601.167969 1022.390625 C 596.960938 1023.933594 592.707031 1025.394531 588.40625 1026.777344 C 584.105469 1028.15625 579.765625 1029.453125 575.382812 1030.671875 C 571 1031.886719 566.582031 1033.015625 562.125 1034.0625 C 557.671875 1035.109375 553.1875 1036.074219 548.671875 1036.949219 C 544.15625 1037.824219 539.617188 1038.617188 535.050781 1039.320312 C 530.488281 1040.023438 525.902344 1040.640625 521.296875 1041.167969 C 516.691406 1041.699219 512.074219 1042.140625 507.441406 1042.496094 C 502.808594 1042.847656 498.167969 1043.113281 493.519531 1043.289062 C 488.871094 1043.46875 484.21875 1043.554688 479.566406 1043.554688 C 474.910156 1043.554688 470.257812 1043.46875 465.609375 1043.289062 C 460.960938 1043.113281 456.320312 1042.847656 451.6875 1042.496094 C 447.054688 1042.140625 442.4375 1041.699219 437.832031 1041.167969 C 433.230469 1040.640625 428.644531 1040.023438 424.078125 1039.320312 C 419.515625 1038.617188 414.972656 1037.828125 410.457031 1036.949219 C 405.945312 1036.074219 401.457031 1035.109375 397.003906 1034.0625 C 392.550781 1033.015625 388.132812 1031.886719 383.75 1030.671875 C 379.367188 1029.453125 375.027344 1028.15625 370.726562 1026.777344 C 366.425781 1025.394531 362.171875 1023.933594 357.964844 1022.390625 C 353.753906 1020.851562 349.597656 1019.226562 345.492188 1017.527344 C 341.390625 1015.828125 337.339844 1014.050781 333.347656 1012.195312 C 329.355469 1010.339844 325.425781 1008.410156 321.554688 1006.40625 C 317.683594 1004.402344 313.878906 1002.328125 310.140625 1000.175781 C 306.402344 998.027344 302.734375 995.808594 299.136719 993.519531 C 295.539062 991.234375 292.015625 988.878906 288.566406 986.453125 C 285.117188 984.03125 281.746094 981.546875 278.453125 978.996094 C 275.164062 976.441406 271.957031 973.832031 268.828125 971.160156 C 265.703125 968.484375 262.664062 965.753906 259.710938 962.964844 C 256.757812 960.175781 253.894531 957.335938 251.121094 954.4375 C 248.351562 951.539062 245.671875 948.589844 243.085938 945.589844 C 240.5 942.59375 238.007812 939.546875 235.617188 936.449219 C 233.222656 933.355469 230.929688 930.21875 228.734375 927.039062 C 226.542969 923.855469 224.449219 920.632812 222.460938 917.375 C 220.46875 914.113281 218.582031 910.816406 216.800781 907.484375 C 215.019531 904.148438 213.347656 900.785156 211.777344 897.386719 C 210.210938 893.992188 208.75 890.566406 207.398438 887.117188 C 206.046875 883.664062 204.808594 880.1875 203.675781 876.6875 C 202.546875 873.1875 201.527344 869.671875 200.617188 866.132812 C 199.710938 862.59375 198.914062 859.039062 198.230469 855.472656 C 197.546875 851.902344 196.976562 848.324219 196.523438 844.734375 C 196.066406 841.144531 195.722656 837.546875 195.496094 833.945312 C 195.265625 830.34375 195.152344 826.738281 195.152344 823.128906 C 195.152344 819.523438 195.265625 815.917969 195.496094 812.3125 C 195.722656 808.710938 196.066406 805.113281 196.523438 801.523438 C 196.976562 797.933594 197.546875 794.355469 198.230469 790.785156 C 198.914062 787.21875 199.710938 783.664062 200.617188 780.125 C 201.527344 776.589844 202.546875 773.070312 203.675781 769.570312 C 204.808594 766.070312 206.046875 762.59375 207.398438 759.144531 C 208.75 755.691406 210.210938 752.265625 211.777344 748.871094 C 213.347656 745.472656 215.019531 742.109375 216.800781 738.777344 C 218.582031 735.441406 220.46875 732.144531 222.460938 728.886719 C 224.449219 725.625 226.542969 722.402344 228.734375 719.222656 C 230.929688 716.039062 233.222656 712.902344 235.617188 709.808594 C 238.007812 706.714844 240.5 703.667969 243.085938 700.667969 C 245.671875 697.667969 248.351562 694.71875 251.121094 691.820312 C 253.894531 688.925781 256.757812 686.082031 259.710938 683.292969 C 262.664062 680.503906 265.703125 677.773438 268.828125 675.101562 C 271.957031 672.425781 275.164062 669.816406 278.453125 667.265625 C 281.746094 664.714844 285.117188 662.226562 288.566406 659.804688 C 292.015625 657.382812 295.539062 655.027344 299.136719 652.738281 C 302.734375 650.449219 306.402344 648.230469 310.140625 646.082031 C 313.878906 643.933594 317.683594 641.855469 321.554688 639.851562 C 325.425781 637.847656 329.355469 635.917969 333.347656 634.0625 C 337.339844 632.207031 341.390625 630.429688 345.492188 628.730469 C 349.597656 627.03125 353.753906 625.410156 357.964844 623.867188 C 362.171875 622.324219 366.425781 620.863281 370.726562 619.480469 C 375.027344 618.101562 379.367188 616.804688 383.75 615.589844 C 388.132812 614.371094 392.550781 613.242188 397.003906 612.195312 C 401.457031 611.148438 405.945312 610.183594 410.457031 609.308594 C 414.972656 608.433594 419.515625 607.640625 424.078125 606.9375 C 428.644531 606.234375 433.230469 605.617188 437.832031 605.089844 C 442.4375 604.558594 447.054688 604.117188 451.6875 603.765625 C 456.320312 603.410156 460.960938 603.144531 465.609375 602.96875 C 470.257812 602.792969 474.910156 602.703125 479.566406 602.703125 C 484.21875 602.703125 488.871094 602.792969 493.519531 602.96875 C 498.167969 603.144531 502.808594 603.410156 507.441406 603.765625 C 512.074219 604.117188 516.691406 604.558594 521.296875 605.089844 C 525.902344 605.617188 530.484375 606.234375 535.050781 606.9375 C 539.617188 607.640625 544.15625 608.433594 548.671875 609.308594 C 553.1875 610.183594 557.671875 611.148438 562.125 612.195312 C 566.582031 613.242188 571 614.371094 575.382812 615.589844 C 579.765625 616.804688 584.105469 618.101562 588.40625 619.480469 C 592.707031 620.863281 596.960938 622.324219 601.167969 623.867188 C 605.375 625.410156 609.53125 627.03125 613.636719 628.730469 C 617.742188 630.429688 621.789062 632.207031 625.78125 634.0625 C 629.773438 635.917969 633.707031 637.847656 637.578125 639.851562 C 641.445312 641.855469 645.25 643.933594 648.988281 646.082031 C 652.726562 648.230469 656.398438 650.449219 659.996094 652.738281 C 663.59375 655.027344 667.117188 657.382812 670.566406 659.804688 C 674.015625 662.226562 677.382812 664.714844 680.675781 667.265625 C 683.96875 669.816406 687.175781 672.425781 690.300781 675.101562 C 693.425781 677.773438 696.464844 680.503906 699.417969 683.292969 C 702.371094 686.082031 705.234375 688.925781 708.007812 691.820312 C 710.78125 694.71875 713.460938 697.667969 716.046875 700.667969 C 718.632812 703.667969 721.121094 706.714844 723.515625 709.808594 C 725.90625 712.902344 728.199219 716.039062 730.394531 719.222656 C 732.589844 722.402344 734.679688 725.625 736.671875 728.886719 C 738.660156 732.144531 740.546875 735.441406 742.328125 738.777344 C 744.109375 742.109375 745.785156 745.472656 747.351562 748.871094 C 748.921875 752.265625 750.378906 755.691406 751.730469 759.144531 C 753.082031 762.59375 754.324219 766.070312 755.453125 769.570312 C 756.585938 773.070312 757.605469 776.589844 758.511719 780.125 C 759.421875 783.664062 760.21875 787.21875 760.898438 790.785156 C 761.582031 794.355469 762.152344 797.933594 762.609375 801.523438 C 763.066406 805.113281 763.40625 808.710938 763.636719 812.3125 C 763.863281 815.917969 763.976562 819.523438 763.976562 823.128906 Z M 763.976562 823.128906 " fill-opacity="1" fill-rule="nonzero"/></g></g><path fill="#d37a7a" d="M 394.007812 494.667969 L 472.808594 494.667969 C 473.445312 494.671875 474.082031 494.699219 474.714844 494.761719 C 475.347656 494.824219 475.976562 494.917969 476.601562 495.042969 C 477.226562 495.167969 477.84375 495.320312 478.453125 495.507812 C 479.0625 495.691406 479.660156 495.90625 480.246094 496.148438 C 480.835938 496.394531 481.410156 496.664062 481.972656 496.964844 C 482.535156 497.265625 483.078125 497.59375 483.609375 497.945312 C 484.136719 498.300781 484.648438 498.679688 485.140625 499.082031 C 485.632812 499.484375 486.105469 499.914062 486.554688 500.363281 C 487.003906 500.8125 487.429688 501.285156 487.835938 501.777344 C 488.238281 502.269531 488.617188 502.777344 488.972656 503.308594 C 489.324219 503.835938 489.652344 504.382812 489.953125 504.945312 C 490.25 505.503906 490.523438 506.082031 490.765625 506.667969 C 491.011719 507.257812 491.226562 507.855469 491.410156 508.464844 C 491.59375 509.074219 491.75 509.691406 491.871094 510.316406 C 491.996094 510.9375 492.089844 511.566406 492.152344 512.203125 C 492.214844 512.835938 492.246094 513.46875 492.246094 514.105469 L 492.246094 612.480469 C 492.246094 614.40625 492.152344 616.328125 491.964844 618.246094 C 491.773438 620.164062 491.492188 622.066406 491.117188 623.957031 C 490.738281 625.847656 490.273438 627.714844 489.714844 629.558594 C 489.152344 631.402344 488.503906 633.214844 487.769531 634.996094 C 487.03125 636.773438 486.207031 638.515625 485.300781 640.214844 C 484.390625 641.914062 483.402344 643.566406 482.332031 645.167969 C 481.261719 646.769531 480.113281 648.316406 478.890625 649.804688 C 477.667969 651.292969 476.375 652.71875 475.015625 654.082031 C 473.652344 655.445312 472.226562 656.738281 470.734375 657.960938 C 469.246094 659.183594 467.699219 660.328125 466.097656 661.398438 C 464.496094 662.46875 462.84375 663.460938 461.144531 664.367188 C 459.445312 665.277344 457.707031 666.097656 455.925781 666.835938 C 454.144531 667.574219 452.335938 668.222656 450.488281 668.78125 C 448.644531 669.339844 446.777344 669.808594 444.890625 670.183594 C 443 670.5625 441.09375 670.84375 439.179688 671.03125 C 437.261719 671.222656 435.335938 671.316406 433.410156 671.316406 C 431.484375 671.316406 429.5625 671.222656 427.644531 671.03125 C 425.726562 670.84375 423.820312 670.5625 421.933594 670.1875 C 420.042969 669.808594 418.175781 669.34375 416.332031 668.78125 C 414.488281 668.222656 412.675781 667.574219 410.894531 666.839844 C 409.113281 666.101562 407.375 665.277344 405.671875 664.371094 C 403.972656 663.460938 402.324219 662.472656 400.722656 661.402344 C 399.117188 660.332031 397.574219 659.183594 396.082031 657.960938 C 394.59375 656.738281 393.167969 655.445312 391.804688 654.085938 C 390.441406 652.722656 389.148438 651.296875 387.925781 649.804688 C 386.703125 648.316406 385.558594 646.769531 384.488281 645.167969 C 383.414062 643.566406 382.425781 641.914062 381.519531 640.214844 C 380.609375 638.515625 379.785156 636.777344 379.046875 634.996094 C 378.3125 633.214844 377.664062 631.402344 377.101562 629.558594 C 376.542969 627.714844 376.078125 625.847656 375.699219 623.957031 C 375.324219 622.070312 375.042969 620.164062 374.851562 618.246094 C 374.664062 616.328125 374.570312 614.40625 374.570312 612.480469 L 374.570312 514.105469 C 374.570312 513.46875 374.601562 512.835938 374.664062 512.203125 C 374.726562 511.566406 374.820312 510.9375 374.941406 510.316406 C 375.066406 509.691406 375.222656 509.074219 375.40625 508.464844 C 375.589844 507.855469 375.804688 507.257812 376.050781 506.667969 C 376.292969 506.082031 376.566406 505.503906 376.863281 504.945312 C 377.164062 504.382812 377.492188 503.835938 377.84375 503.308594 C 378.199219 502.777344 378.578125 502.269531 378.980469 501.777344 C 379.386719 501.285156 379.8125 500.8125 380.261719 500.363281 C 380.710938 499.914062 381.183594 499.484375 381.675781 499.082031 C 382.167969 498.679688 382.679688 498.300781 383.207031 497.945312 C 383.738281 497.59375 384.28125 497.265625 384.84375 496.964844 C 385.40625 496.664062 385.980469 496.394531 386.566406 496.148438 C 387.15625 495.90625 387.753906 495.691406 388.363281 495.507812 C 388.972656 495.320312 389.589844 495.167969 390.214844 495.042969 C 390.839844 494.917969 391.46875 494.824219 392.101562 494.761719 C 392.734375 494.699219 393.371094 494.671875 394.007812 494.667969 Z M 394.007812 494.667969 " fill-opacity="1" fill-rule="nonzero"/><path fill="#e58b89" d="M 301.421875 427.960938 C 301.421875 429.046875 301.367188 430.128906 301.261719 431.210938 C 301.15625 432.289062 300.996094 433.363281 300.785156 434.425781 C 300.570312 435.492188 300.308594 436.542969 299.992188 437.582031 C 299.679688 438.621094 299.3125 439.640625 298.898438 440.644531 C 298.480469 441.648438 298.019531 442.628906 297.507812 443.585938 C 296.996094 444.542969 296.4375 445.472656 295.835938 446.375 C 295.230469 447.277344 294.585938 448.148438 293.894531 448.988281 C 293.207031 449.828125 292.480469 450.628906 291.710938 451.398438 C 290.945312 452.164062 290.140625 452.894531 289.300781 453.582031 C 288.460938 454.269531 287.589844 454.917969 286.6875 455.519531 C 285.785156 456.121094 284.855469 456.679688 283.898438 457.191406 C 282.941406 457.703125 281.960938 458.167969 280.957031 458.582031 C 279.957031 458.996094 278.933594 459.363281 277.894531 459.675781 C 276.855469 459.992188 275.804688 460.253906 274.738281 460.464844 C 273.675781 460.679688 272.601562 460.835938 271.523438 460.945312 C 270.441406 461.050781 269.359375 461.101562 268.273438 461.101562 C 249.972656 461.101562 235.132812 439.242188 235.132812 420.933594 C 235.132812 402.625 249.972656 394.8125 268.273438 394.8125 C 269.359375 394.8125 270.441406 394.867188 271.523438 394.972656 C 272.601562 395.082031 273.675781 395.238281 274.742188 395.449219 C 275.804688 395.664062 276.855469 395.925781 277.894531 396.242188 C 278.933594 396.554688 279.957031 396.921875 280.957031 397.335938 C 281.960938 397.753906 282.941406 398.214844 283.898438 398.726562 C 284.855469 399.238281 285.785156 399.796875 286.6875 400.398438 C 287.59375 401.003906 288.460938 401.648438 289.300781 402.339844 C 290.140625 403.027344 290.945312 403.753906 291.710938 404.523438 C 292.480469 405.289062 293.207031 406.09375 293.898438 406.933594 C 294.585938 407.773438 295.230469 408.644531 295.835938 409.546875 C 296.4375 410.449219 296.996094 411.378906 297.507812 412.335938 C 298.019531 413.292969 298.480469 414.273438 298.898438 415.277344 C 299.3125 416.28125 299.679688 417.300781 299.992188 418.339844 C 300.308594 419.378906 300.570312 420.429688 300.785156 421.496094 C 300.996094 422.558594 301.15625 423.632812 301.261719 424.710938 C 301.367188 425.792969 301.421875 426.875 301.421875 427.960938 Z M 301.421875 427.960938 " fill-opacity="1" fill-rule="nonzero"/><path fill="#e58b89" d="M 590.542969 422.445312 C 590.542969 441.808594 574.84375 464.941406 555.480469 464.941406 C 554.339844 464.929688 553.207031 464.859375 552.074219 464.734375 C 550.941406 464.609375 549.816406 464.429688 548.703125 464.195312 C 547.585938 463.960938 546.488281 463.671875 545.398438 463.328125 C 544.3125 462.988281 543.246094 462.59375 542.195312 462.148438 C 541.148438 461.703125 540.125 461.207031 539.125 460.660156 C 538.125 460.113281 537.152344 459.523438 536.210938 458.882812 C 535.269531 458.242188 534.359375 457.554688 533.484375 456.828125 C 532.609375 456.097656 531.769531 455.328125 530.96875 454.519531 C 530.167969 453.707031 529.410156 452.859375 528.691406 451.976562 C 527.972656 451.089844 527.300781 450.171875 526.671875 449.222656 C 526.042969 448.273438 525.464844 447.292969 524.929688 446.289062 C 524.398438 445.28125 523.914062 444.25 523.480469 443.195312 C 523.046875 442.140625 522.667969 441.070312 522.339844 439.980469 C 522.011719 438.886719 521.738281 437.78125 521.515625 436.664062 C 521.296875 435.546875 521.128906 434.421875 521.019531 433.289062 C 520.910156 432.152344 520.855469 431.015625 520.855469 429.878906 C 520.855469 428.738281 520.910156 427.601562 521.019531 426.46875 C 521.128906 425.335938 521.296875 424.207031 521.515625 423.089844 C 521.738281 421.972656 522.011719 420.867188 522.339844 419.777344 C 522.667969 418.6875 523.046875 417.613281 523.480469 416.558594 C 523.914062 415.507812 524.398438 414.476562 524.929688 413.46875 C 525.464844 412.460938 526.042969 411.484375 526.671875 410.535156 C 527.300781 409.582031 527.972656 408.664062 528.691406 407.78125 C 529.410156 406.898438 530.167969 406.050781 530.96875 405.238281 C 531.769531 404.425781 532.609375 403.65625 533.484375 402.929688 C 534.359375 402.199219 535.269531 401.515625 536.210938 400.875 C 537.152344 400.234375 538.125 399.640625 539.125 399.097656 C 540.125 398.550781 541.148438 398.054688 542.195312 397.609375 C 543.246094 397.164062 544.3125 396.769531 545.398438 396.425781 C 546.488281 396.085938 547.585938 395.796875 548.703125 395.5625 C 549.816406 395.328125 550.941406 395.148438 552.074219 395.023438 C 553.207031 394.898438 554.339844 394.828125 555.480469 394.8125 C 574.855469 394.8125 590.542969 403.082031 590.542969 422.445312 Z M 590.542969 422.445312 " fill-opacity="1" fill-rule="nonzero"/><path fill="#fda297" d="M 408.503906 613.390625 C 289.121094 628.703125 263.238281 443.375 261.5625 372.949219 C 259.632812 291.816406 327.347656 226.007812 408.503906 226.007812 C 489.652344 226.007812 557.394531 291.816406 555.441406 372.949219 C 553.738281 443.375 543.707031 596.050781 408.503906 613.390625 Z M 408.503906 613.390625 " fill-opacity="1" fill-rule="nonzero"/><path fill="#18008b" d="M 265.207031 420.148438 C 265.207031 420.148438 237.628906 328.699219 246.292969 290.679688 C 254.957031 252.664062 299.714844 192.496094 402.949219 192.496094 C 509.796875 192.496094 540.519531 268.539062 555.480469 301.265625 C 570.441406 333.992188 551.769531 429.871094 551.769531 429.871094 C 551.769531 429.871094 536.746094 335.921875 515.574219 309.449219 C 494.398438 282.972656 382.203125 253.136719 380.78125 253.136719 C 379.359375 253.136719 273.695312 310.390625 273.695312 310.390625 Z M 265.207031 420.148438 " fill-opacity="1" fill-rule="nonzero"/><path fill="#18008b" d="M 332.558594 421.953125 C 332.558594 422.90625 332.515625 423.855469 332.425781 424.792969 C 332.335938 425.726562 332.207031 426.636719 332.03125 427.519531 C 331.859375 428.402344 331.648438 429.242188 331.394531 430.035156 C 331.140625 430.832031 330.855469 431.566406 330.535156 432.242188 C 330.214844 432.917969 329.867188 433.519531 329.488281 434.050781 C 329.109375 434.582031 328.710938 435.03125 328.292969 435.394531 C 327.875 435.761719 327.441406 436.039062 326.996094 436.222656 C 326.550781 436.410156 326.101562 436.503906 325.648438 436.503906 C 325.195312 436.503906 324.746094 436.410156 324.300781 436.222656 C 323.855469 436.039062 323.421875 435.761719 323.003906 435.394531 C 322.585938 435.03125 322.1875 434.582031 321.808594 434.050781 C 321.433594 433.519531 321.082031 432.917969 320.761719 432.242188 C 320.441406 431.566406 320.15625 430.832031 319.902344 430.035156 C 319.652344 429.242188 319.4375 428.402344 319.265625 427.519531 C 319.089844 426.636719 318.960938 425.726562 318.871094 424.792969 C 318.78125 423.855469 318.738281 422.90625 318.738281 421.953125 C 318.738281 420.996094 318.78125 420.050781 318.871094 419.113281 C 318.960938 418.175781 319.089844 417.265625 319.265625 416.382812 C 319.4375 415.5 319.652344 414.664062 319.902344 413.867188 C 320.15625 413.074219 320.441406 412.339844 320.761719 411.664062 C 321.082031 410.988281 321.433594 410.382812 321.808594 409.855469 C 322.1875 409.324219 322.585938 408.875 323.003906 408.507812 C 323.421875 408.144531 323.855469 407.867188 324.300781 407.679688 C 324.746094 407.496094 325.195312 407.402344 325.648438 407.402344 C 326.101562 407.402344 326.550781 407.496094 326.996094 407.679688 C 327.441406 407.867188 327.875 408.144531 328.292969 408.507812 C 328.710938 408.875 329.109375 409.324219 329.488281 409.855469 C 329.867188 410.382812 330.214844 410.988281 330.535156 411.664062 C 330.855469 412.339844 331.140625 413.074219 331.394531 413.867188 C 331.648438 414.664062 331.859375 415.5 332.03125 416.382812 C 332.207031 417.265625 332.335938 418.175781 332.425781 419.113281 C 332.515625 420.050781 332.558594 420.996094 332.558594 421.953125 Z M 332.558594 421.953125 " fill-opacity="1" fill-rule="nonzero"/><path fill="#18008b" d="M 437.125 421.953125 C 437.125 422.90625 437.078125 423.855469 436.992188 424.792969 C 436.902344 425.726562 436.769531 426.636719 436.597656 427.519531 C 436.421875 428.402344 436.210938 429.242188 435.957031 430.035156 C 435.707031 430.832031 435.421875 431.566406 435.097656 432.242188 C 434.777344 432.917969 434.429688 433.519531 434.050781 434.050781 C 433.675781 434.582031 433.277344 435.03125 432.859375 435.394531 C 432.4375 435.761719 432.007812 436.039062 431.5625 436.222656 C 431.117188 436.410156 430.667969 436.503906 430.214844 436.503906 C 429.757812 436.503906 429.308594 436.410156 428.863281 436.222656 C 428.417969 436.039062 427.988281 435.761719 427.570312 435.394531 C 427.148438 435.03125 426.75 434.582031 426.375 434.050781 C 425.996094 433.519531 425.648438 432.917969 425.328125 432.242188 C 425.003906 431.566406 424.71875 430.832031 424.46875 430.035156 C 424.214844 429.242188 424.003906 428.402344 423.828125 427.519531 C 423.65625 426.636719 423.523438 425.726562 423.433594 424.792969 C 423.347656 423.855469 423.300781 422.90625 423.300781 421.953125 C 423.300781 420.996094 423.347656 420.050781 423.433594 419.113281 C 423.523438 418.175781 423.65625 417.265625 423.828125 416.382812 C 424.003906 415.5 424.214844 414.664062 424.46875 413.867188 C 424.71875 413.074219 425.003906 412.339844 425.328125 411.664062 C 425.648438 410.988281 425.996094 410.382812 426.375 409.855469 C 426.75 409.324219 427.148438 408.875 427.570312 408.507812 C 427.988281 408.144531 428.417969 407.867188 428.863281 407.679688 C 429.308594 407.496094 429.757812 407.402344 430.214844 407.402344 C 430.667969 407.402344 431.117188 407.496094 431.5625 407.679688 C 432.007812 407.867188 432.4375 408.144531 432.859375 408.507812 C 433.277344 408.875 433.675781 409.324219 434.050781 409.855469 C 434.429688 410.382812 434.777344 410.988281 435.097656 411.664062 C 435.421875 412.339844 435.707031 413.074219 435.957031 413.867188 C 436.210938 414.664062 436.421875 415.5 436.597656 416.382812 C 436.769531 417.265625 436.902344 418.175781 436.992188 419.113281 C 437.078125 420.050781 437.125 420.996094 437.125 421.953125 Z M 437.125 421.953125 " fill-opacity="1" fill-rule="nonzero"/><path fill="#18008b" d="M 381.210938 509.570312 C 381.074219 509.578125 380.9375 509.578125 380.800781 509.570312 C 379.203125 509.570312 377.632812 509.359375 376.09375 508.945312 C 374.550781 508.53125 373.089844 507.921875 371.710938 507.121094 C 370.328125 506.320312 369.074219 505.351562 367.949219 504.21875 C 366.824219 503.085938 365.867188 501.828125 365.074219 500.441406 C 359.5 489.375 368.6875 473.457031 369.75 471.671875 C 370.039062 471.214844 370.402344 470.828125 370.84375 470.515625 C 371.28125 470.203125 371.761719 469.984375 372.289062 469.859375 C 372.8125 469.734375 373.339844 469.710938 373.875 469.792969 C 374.40625 469.878906 374.90625 470.058594 375.367188 470.335938 C 375.832031 470.613281 376.226562 470.964844 376.550781 471.398438 C 376.871094 471.828125 377.101562 472.304688 377.242188 472.828125 C 377.378906 473.347656 377.410156 473.878906 377.34375 474.414062 C 377.273438 474.949219 377.105469 475.449219 376.839844 475.917969 C 374.746094 479.421875 369.457031 490.765625 372.457031 496.722656 C 372.949219 497.683594 374.425781 500.59375 381.613281 501.335938 C 382.128906 501.402344 382.617188 501.558594 383.074219 501.808594 C 383.535156 502.054688 383.929688 502.378906 384.265625 502.777344 C 384.601562 503.179688 384.851562 503.625 385.019531 504.117188 C 385.183594 504.613281 385.253906 505.121094 385.230469 505.640625 C 385.203125 506.160156 385.085938 506.660156 384.871094 507.132812 C 384.65625 507.609375 384.363281 508.03125 383.988281 508.394531 C 383.617188 508.757812 383.191406 509.042969 382.710938 509.246094 C 382.230469 509.449219 381.730469 509.554688 381.210938 509.570312 Z M 381.210938 509.570312 " fill-opacity="1" fill-rule="nonzero"/><path fill="#18008b" d="M 293.164062 402.824219 C 292.726562 402.824219 292.296875 402.757812 291.878906 402.621094 C 291.460938 402.484375 291.078125 402.285156 290.722656 402.023438 C 290.367188 401.765625 290.0625 401.457031 289.808594 401.097656 C 289.550781 400.742188 289.355469 400.351562 289.226562 399.933594 C 289.09375 399.515625 289.03125 399.085938 289.035156 398.644531 C 289.039062 398.207031 289.113281 397.777344 289.253906 397.363281 C 289.394531 396.945312 289.597656 396.5625 289.863281 396.210938 C 290.125 395.859375 290.4375 395.558594 290.796875 395.304688 C 291.511719 394.808594 308.53125 383.328125 336.90625 389.347656 C 337.429688 389.476562 337.910156 389.695312 338.34375 390.007812 C 338.78125 390.324219 339.140625 390.707031 339.429688 391.160156 C 339.714844 391.617188 339.90625 392.109375 340 392.636719 C 340.09375 393.164062 340.085938 393.691406 339.976562 394.21875 C 339.863281 394.746094 339.65625 395.230469 339.355469 395.675781 C 339.058594 396.121094 338.683594 396.492188 338.238281 396.792969 C 337.792969 397.09375 337.304688 397.296875 336.78125 397.410156 C 336.253906 397.519531 335.726562 397.527344 335.199219 397.429688 C 331.890625 396.558594 328.53125 396 325.117188 395.757812 C 321.703125 395.519531 318.296875 395.597656 314.898438 396 C 311.5 396.398438 308.171875 397.113281 304.90625 398.140625 C 301.644531 399.167969 298.503906 400.492188 295.488281 402.113281 C 294.789062 402.585938 294.011719 402.824219 293.164062 402.824219 Z M 293.164062 402.824219 " fill-opacity="1" fill-rule="nonzero"/><path fill="#18008b" d="M 462.710938 402.832031 C 461.859375 402.832031 461.082031 402.589844 460.378906 402.105469 C 457.363281 400.488281 454.222656 399.167969 450.957031 398.144531 C 447.695312 397.117188 444.363281 396.402344 440.964844 396.003906 C 437.570312 395.601562 434.164062 395.523438 430.75 395.761719 C 427.335938 396.003906 423.976562 396.558594 420.667969 397.429688 C 420.398438 397.496094 420.128906 397.535156 419.851562 397.546875 C 419.574219 397.554688 419.300781 397.539062 419.027344 397.496094 C 418.753906 397.449219 418.488281 397.378906 418.230469 397.28125 C 417.96875 397.183594 417.722656 397.058594 417.488281 396.914062 C 417.253906 396.765625 417.039062 396.597656 416.839844 396.40625 C 416.636719 396.214844 416.460938 396.003906 416.300781 395.777344 C 416.144531 395.550781 416.007812 395.3125 415.898438 395.058594 C 415.789062 394.804688 415.707031 394.542969 415.648438 394.269531 C 415.589844 394 415.5625 393.726562 415.558594 393.449219 C 415.554688 393.171875 415.582031 392.898438 415.632812 392.628906 C 415.6875 392.355469 415.765625 392.09375 415.871094 391.835938 C 415.976562 391.582031 416.109375 391.339844 416.261719 391.109375 C 416.417969 390.878906 416.59375 390.667969 416.789062 390.472656 C 416.984375 390.277344 417.199219 390.105469 417.433594 389.953125 C 417.664062 389.804688 417.90625 389.675781 418.164062 389.574219 C 418.421875 389.472656 418.6875 389.398438 418.960938 389.347656 C 447.34375 383.328125 464.328125 394.8125 465.0625 395.304688 C 465.425781 395.558594 465.742188 395.855469 466.007812 396.207031 C 466.273438 396.558594 466.476562 396.941406 466.621094 397.359375 C 466.765625 397.773438 466.839844 398.203125 466.847656 398.644531 C 466.851562 399.085938 466.789062 399.515625 466.660156 399.933594 C 466.527344 400.355469 466.335938 400.746094 466.078125 401.101562 C 465.820312 401.460938 465.515625 401.769531 465.160156 402.03125 C 464.804688 402.292969 464.417969 402.492188 464 402.628906 C 463.582031 402.765625 463.152344 402.832031 462.710938 402.832031 Z M 462.710938 402.832031 " fill-opacity="1" fill-rule="nonzero"/><path fill="#18008b" d="M 405 554.976562 C 404.730469 554.976562 404.460938 554.949219 404.195312 554.898438 C 403.925781 554.84375 403.667969 554.765625 403.417969 554.664062 C 403.167969 554.558594 402.929688 554.429688 402.703125 554.28125 C 402.476562 554.128906 402.269531 553.957031 402.078125 553.765625 C 401.886719 553.574219 401.714844 553.367188 401.5625 553.140625 C 401.414062 552.914062 401.285156 552.675781 401.179688 552.425781 C 401.078125 552.175781 401 551.917969 400.945312 551.652344 C 400.894531 551.382812 400.867188 551.117188 400.867188 550.84375 C 400.867188 550.574219 400.894531 550.304688 400.945312 550.039062 C 401 549.773438 401.078125 549.511719 401.179688 549.261719 C 401.285156 549.011719 401.414062 548.773438 401.5625 548.546875 C 401.714844 548.324219 401.886719 548.113281 402.078125 547.921875 C 402.269531 547.730469 402.476562 547.558594 402.703125 547.40625 C 402.929688 547.257812 403.167969 547.128906 403.417969 547.027344 C 403.667969 546.921875 403.925781 546.84375 404.195312 546.789062 C 404.460938 546.738281 404.730469 546.710938 405 546.710938 C 405.839844 546.710938 406.667969 546.628906 407.488281 546.464844 C 408.3125 546.300781 409.109375 546.058594 409.882812 545.738281 C 410.65625 545.414062 411.394531 545.023438 412.089844 544.558594 C 412.785156 544.089844 413.429688 543.5625 414.023438 542.96875 C 414.617188 542.378906 415.144531 541.734375 415.613281 541.035156 C 416.078125 540.339844 416.472656 539.605469 416.792969 538.832031 C 417.113281 538.054688 417.355469 537.257812 417.519531 536.4375 C 417.6875 535.613281 417.769531 534.785156 417.769531 533.945312 C 417.757812 533.667969 417.777344 533.394531 417.824219 533.121094 C 417.867188 532.847656 417.941406 532.578125 418.039062 532.320312 C 418.136719 532.058594 418.261719 531.8125 418.410156 531.578125 C 418.5625 531.34375 418.730469 531.128906 418.925781 530.925781 C 419.117188 530.726562 419.328125 530.546875 419.558594 530.390625 C 419.785156 530.234375 420.027344 530.101562 420.285156 529.992188 C 420.539062 529.882812 420.804688 529.800781 421.074219 529.746094 C 421.347656 529.691406 421.621094 529.664062 421.898438 529.664062 C 422.175781 529.664062 422.453125 529.691406 422.726562 529.746094 C 422.996094 529.800781 423.261719 529.882812 423.515625 529.992188 C 423.773438 530.101562 424.015625 530.234375 424.242188 530.390625 C 424.472656 530.546875 424.683594 530.726562 424.875 530.925781 C 425.066406 531.128906 425.238281 531.34375 425.386719 531.578125 C 425.535156 531.8125 425.660156 532.058594 425.761719 532.320312 C 425.859375 532.578125 425.933594 532.847656 425.976562 533.121094 C 426.023438 533.394531 426.039062 533.667969 426.03125 533.945312 C 426.027344 534.636719 425.996094 535.324219 425.925781 536.007812 C 425.859375 536.691406 425.757812 537.371094 425.621094 538.046875 C 425.488281 538.722656 425.320312 539.390625 425.117188 540.046875 C 424.917969 540.707031 424.6875 541.355469 424.421875 541.992188 C 424.15625 542.625 423.863281 543.25 423.539062 543.855469 C 423.214844 544.460938 422.859375 545.050781 422.476562 545.625 C 422.09375 546.195312 421.683594 546.75 421.246094 547.28125 C 420.8125 547.8125 420.347656 548.324219 419.863281 548.808594 C 419.375 549.296875 418.867188 549.757812 418.332031 550.195312 C 417.800781 550.632812 417.25 551.042969 416.675781 551.425781 C 416.105469 551.808594 415.515625 552.160156 414.90625 552.484375 C 414.300781 552.8125 413.679688 553.105469 413.042969 553.367188 C 412.40625 553.632812 411.761719 553.863281 411.101562 554.066406 C 410.441406 554.265625 409.777344 554.433594 409.101562 554.570312 C 408.425781 554.703125 407.746094 554.804688 407.058594 554.875 C 406.375 554.941406 405.6875 554.976562 405 554.976562 Z M 405 554.976562 " fill-opacity="1" fill-rule="nonzero"/><path fill="#ffffff" d="M 304.855469 472.050781 C 302.871094 472.050781 300.890625 471.953125 298.914062 471.761719 C 296.9375 471.566406 294.976562 471.273438 293.03125 470.886719 C 291.082031 470.5 289.160156 470.019531 287.261719 469.441406 C 285.359375 468.867188 283.492188 468.199219 281.660156 467.4375 C 279.824219 466.679688 278.03125 465.832031 276.28125 464.894531 C 274.53125 463.957031 272.832031 462.9375 271.179688 461.835938 C 269.527344 460.734375 267.9375 459.550781 266.402344 458.292969 C 264.867188 457.03125 263.398438 455.703125 261.992188 454.296875 C 260.589844 452.894531 259.257812 451.425781 258 449.890625 C 256.738281 448.355469 255.558594 446.761719 254.457031 445.113281 C 253.351562 443.460938 252.332031 441.761719 251.398438 440.007812 C 250.460938 438.257812 249.613281 436.464844 248.855469 434.632812 C 248.09375 432.796875 247.425781 430.929688 246.847656 429.03125 C 246.273438 427.132812 245.792969 425.207031 245.402344 423.261719 C 245.015625 421.3125 244.726562 419.351562 244.53125 417.375 C 244.335938 415.402344 244.238281 413.421875 244.238281 411.433594 C 244.238281 409.449219 244.335938 407.46875 244.53125 405.492188 C 244.726562 403.515625 245.015625 401.554688 245.402344 399.609375 C 245.792969 397.660156 246.273438 395.738281 246.847656 393.839844 C 247.425781 391.9375 248.09375 390.070312 248.855469 388.238281 C 249.613281 386.402344 250.460938 384.609375 251.398438 382.859375 C 252.332031 381.109375 253.351562 379.410156 254.457031 377.757812 C 255.558594 376.105469 256.738281 374.515625 258 372.980469 C 259.257812 371.445312 260.589844 369.976562 261.992188 368.570312 C 263.398438 367.167969 264.867188 365.835938 266.402344 364.578125 C 267.9375 363.316406 269.527344 362.136719 271.179688 361.035156 C 272.832031 359.929688 274.53125 358.910156 276.28125 357.976562 C 278.03125 357.039062 279.824219 356.191406 281.660156 355.429688 C 283.492188 354.671875 285.359375 354.003906 287.261719 353.425781 C 289.160156 352.851562 291.082031 352.371094 293.03125 351.980469 C 294.976562 351.59375 296.9375 351.304688 298.914062 351.109375 C 300.890625 350.914062 302.871094 350.816406 304.855469 350.816406 C 306.84375 350.816406 308.824219 350.914062 310.796875 351.109375 C 312.773438 351.304688 314.734375 351.59375 316.683594 351.980469 C 318.628906 352.371094 320.554688 352.851562 322.453125 353.425781 C 324.351562 354.003906 326.21875 354.671875 328.054688 355.429688 C 329.886719 356.191406 331.679688 357.039062 333.429688 357.976562 C 335.183594 358.910156 336.882812 359.929688 338.535156 361.035156 C 340.183594 362.136719 341.777344 363.316406 343.3125 364.578125 C 344.847656 365.835938 346.316406 367.167969 347.71875 368.570312 C 349.125 369.976562 350.453125 371.445312 351.714844 372.980469 C 352.972656 374.515625 354.15625 376.105469 355.257812 377.757812 C 356.359375 379.410156 357.378906 381.109375 358.316406 382.859375 C 359.253906 384.609375 360.101562 386.402344 360.859375 388.238281 C 361.621094 390.070312 362.289062 391.9375 362.863281 393.839844 C 363.441406 395.738281 363.921875 397.660156 364.308594 399.609375 C 364.695312 401.554688 364.988281 403.515625 365.183594 405.492188 C 365.375 407.46875 365.472656 409.449219 365.472656 411.433594 C 365.472656 413.417969 365.371094 415.398438 365.175781 417.375 C 364.980469 419.347656 364.6875 421.308594 364.296875 423.253906 C 363.910156 425.203125 363.425781 427.125 362.847656 429.023438 C 362.269531 430.921875 361.601562 432.789062 360.839844 434.621094 C 360.078125 436.453125 359.230469 438.246094 358.296875 439.996094 C 357.359375 441.746094 356.339844 443.445312 355.234375 445.09375 C 354.132812 446.746094 352.953125 448.335938 351.691406 449.871094 C 350.433594 451.40625 349.101562 452.875 347.699219 454.277344 C 346.296875 455.679688 344.828125 457.011719 343.292969 458.269531 C 341.757812 459.53125 340.167969 460.710938 338.515625 461.8125 C 336.867188 462.917969 335.167969 463.9375 333.417969 464.875 C 331.667969 465.808594 329.875 466.65625 328.042969 467.417969 C 326.210938 468.179688 324.34375 468.847656 322.445312 469.425781 C 320.546875 470.003906 318.625 470.488281 316.675781 470.875 C 314.730469 471.265625 312.769531 471.558594 310.796875 471.753906 C 308.820312 471.949219 306.839844 472.050781 304.855469 472.050781 Z M 304.855469 359.082031 C 303.140625 359.082031 301.429688 359.167969 299.722656 359.335938 C 298.019531 359.503906 296.324219 359.753906 294.640625 360.089844 C 292.960938 360.425781 291.300781 360.839844 289.65625 361.339844 C 288.015625 361.835938 286.40625 362.414062 284.820312 363.070312 C 283.234375 363.726562 281.6875 364.457031 280.175781 365.265625 C 278.664062 366.074219 277.195312 366.953125 275.769531 367.90625 C 274.34375 368.859375 272.964844 369.878906 271.640625 370.96875 C 270.316406 372.054688 269.046875 373.207031 267.835938 374.417969 C 266.621094 375.632812 265.472656 376.902344 264.382812 378.226562 C 263.296875 379.550781 262.277344 380.925781 261.324219 382.351562 C 260.371094 383.777344 259.488281 385.25 258.679688 386.761719 C 257.875 388.273438 257.140625 389.820312 256.484375 391.40625 C 255.828125 392.988281 255.25 394.601562 254.753906 396.242188 C 254.257812 397.882812 253.839844 399.546875 253.503906 401.226562 C 253.171875 402.910156 252.917969 404.601562 252.75 406.308594 C 252.582031 408.015625 252.5 409.726562 252.5 411.441406 C 252.5 413.15625 252.585938 414.867188 252.753906 416.574219 C 252.921875 418.28125 253.171875 419.976562 253.507812 421.65625 C 253.839844 423.339844 254.257812 425 254.753906 426.640625 C 255.253906 428.28125 255.828125 429.894531 256.484375 431.476562 C 257.140625 433.0625 257.875 434.609375 258.683594 436.125 C 259.492188 437.636719 260.371094 439.105469 261.324219 440.53125 C 262.277344 441.957031 263.296875 443.332031 264.386719 444.65625 C 265.472656 445.984375 266.625 447.25 267.835938 448.464844 C 269.050781 449.675781 270.320312 450.828125 271.644531 451.914062 C 272.96875 453.003906 274.34375 454.023438 275.769531 454.976562 C 277.195312 455.925781 278.667969 456.808594 280.179688 457.617188 C 281.691406 458.425781 283.238281 459.15625 284.824219 459.8125 C 286.40625 460.46875 288.019531 461.046875 289.660156 461.542969 C 291.300781 462.042969 292.964844 462.457031 294.644531 462.792969 C 296.328125 463.125 298.023438 463.378906 299.726562 463.546875 C 301.433594 463.714844 303.144531 463.796875 304.859375 463.796875 C 306.574219 463.796875 308.285156 463.710938 309.992188 463.542969 C 311.699219 463.375 313.394531 463.125 315.074219 462.789062 C 316.757812 462.457031 318.417969 462.039062 320.058594 461.542969 C 321.699219 461.042969 323.3125 460.464844 324.894531 459.808594 C 326.480469 459.152344 328.027344 458.421875 329.542969 457.613281 C 331.054688 456.804688 332.523438 455.921875 333.949219 454.972656 C 335.375 454.019531 336.75 452.996094 338.074219 451.910156 C 339.398438 450.820312 340.667969 449.671875 341.882812 448.457031 C 343.09375 447.246094 344.242188 445.976562 345.332031 444.652344 C 346.417969 443.324219 347.441406 441.949219 348.390625 440.523438 C 349.34375 439.097656 350.226562 437.628906 351.035156 436.117188 C 351.839844 434.605469 352.574219 433.054688 353.230469 431.472656 C 353.886719 429.886719 354.460938 428.273438 354.960938 426.632812 C 355.457031 424.992188 355.875 423.332031 356.207031 421.648438 C 356.542969 419.96875 356.792969 418.273438 356.960938 416.566406 C 357.128906 414.859375 357.214844 413.148438 357.214844 411.433594 C 357.210938 409.71875 357.125 408.011719 356.957031 406.304688 C 356.785156 404.597656 356.535156 402.90625 356.199219 401.222656 C 355.863281 399.542969 355.445312 397.882812 354.945312 396.242188 C 354.449219 394.601562 353.871094 392.992188 353.214844 391.40625 C 352.554688 389.824219 351.824219 388.277344 351.015625 386.765625 C 350.207031 385.253906 349.324219 383.785156 348.371094 382.359375 C 347.417969 380.933594 346.398438 379.558594 345.3125 378.234375 C 344.222656 376.910156 343.074219 375.640625 341.863281 374.429688 C 340.648438 373.21875 339.382812 372.066406 338.054688 370.980469 C 336.730469 369.890625 335.355469 368.871094 333.929688 367.917969 C 332.507812 366.964844 331.039062 366.085938 329.527344 365.277344 C 328.015625 364.46875 326.46875 363.734375 324.882812 363.078125 C 323.300781 362.421875 321.6875 361.84375 320.046875 361.34375 C 318.410156 360.847656 316.75 360.429688 315.066406 360.09375 C 313.386719 359.757812 311.691406 359.503906 309.988281 359.335938 C 308.28125 359.164062 306.570312 359.078125 304.855469 359.078125 Z M 304.855469 359.082031 " fill-opacity="1" fill-rule="nonzero"/><path fill="#ffffff" d="M 451.003906 472.050781 C 449.019531 472.050781 447.039062 471.953125 445.0625 471.761719 C 443.085938 471.566406 441.125 471.273438 439.179688 470.886719 C 437.230469 470.5 435.308594 470.019531 433.410156 469.441406 C 431.507812 468.867188 429.640625 468.199219 427.808594 467.4375 C 425.972656 466.679688 424.179688 465.832031 422.429688 464.894531 C 420.679688 463.957031 418.980469 462.9375 417.328125 461.835938 C 415.675781 460.734375 414.085938 459.550781 412.550781 458.292969 C 411.015625 457.03125 409.546875 455.703125 408.140625 454.296875 C 406.738281 452.894531 405.40625 451.425781 404.148438 449.890625 C 402.886719 448.355469 401.707031 446.761719 400.605469 445.113281 C 399.5 443.460938 398.480469 441.761719 397.546875 440.007812 C 396.609375 438.257812 395.761719 436.464844 395.003906 434.632812 C 394.242188 432.796875 393.574219 430.929688 392.996094 429.03125 C 392.421875 427.132812 391.941406 425.207031 391.550781 423.261719 C 391.164062 421.3125 390.875 419.351562 390.679688 417.375 C 390.484375 415.402344 390.386719 413.421875 390.386719 411.433594 C 390.386719 409.449219 390.484375 407.46875 390.679688 405.492188 C 390.875 403.515625 391.164062 401.554688 391.550781 399.609375 C 391.941406 397.660156 392.421875 395.738281 393 393.839844 C 393.574219 391.9375 394.242188 390.070312 395.003906 388.238281 C 395.761719 386.402344 396.609375 384.609375 397.546875 382.859375 C 398.480469 381.109375 399.5 379.410156 400.605469 377.757812 C 401.707031 376.105469 402.886719 374.515625 404.148438 372.980469 C 405.40625 371.445312 406.738281 369.976562 408.140625 368.570312 C 409.546875 367.167969 411.015625 365.835938 412.550781 364.578125 C 414.085938 363.316406 415.675781 362.136719 417.328125 361.035156 C 418.980469 359.929688 420.679688 358.910156 422.429688 357.976562 C 424.179688 357.039062 425.972656 356.191406 427.808594 355.429688 C 429.640625 354.671875 431.507812 354.003906 433.410156 353.425781 C 435.308594 352.851562 437.230469 352.371094 439.179688 351.980469 C 441.125 351.59375 443.085938 351.304688 445.0625 351.109375 C 447.039062 350.914062 449.019531 350.816406 451.003906 350.816406 C 452.992188 350.816406 454.972656 350.914062 456.945312 351.109375 C 458.921875 351.304688 460.882812 351.59375 462.832031 351.980469 C 464.777344 352.371094 466.703125 352.851562 468.601562 353.425781 C 470.5 354.003906 472.367188 354.671875 474.203125 355.429688 C 476.035156 356.191406 477.828125 357.039062 479.578125 357.976562 C 481.332031 358.910156 483.03125 359.929688 484.683594 361.035156 C 486.332031 362.136719 487.925781 363.316406 489.460938 364.578125 C 490.996094 365.835938 492.464844 367.167969 493.867188 368.570312 C 495.273438 369.976562 496.601562 371.445312 497.863281 372.980469 C 499.121094 374.515625 500.304688 376.105469 501.40625 377.757812 C 502.507812 379.410156 503.527344 381.109375 504.464844 382.859375 C 505.402344 384.609375 506.25 386.402344 507.007812 388.238281 C 507.769531 390.070312 508.4375 391.9375 509.011719 393.839844 C 509.589844 395.738281 510.070312 397.660156 510.457031 399.609375 C 510.84375 401.554688 511.136719 403.515625 511.332031 405.492188 C 511.523438 407.46875 511.621094 409.449219 511.621094 411.433594 C 511.621094 413.417969 511.519531 415.398438 511.324219 417.375 C 511.128906 419.347656 510.835938 421.308594 510.445312 423.257812 C 510.058594 425.203125 509.574219 427.125 508.996094 429.023438 C 508.417969 430.921875 507.75 432.789062 506.992188 434.621094 C 506.230469 436.453125 505.382812 438.246094 504.445312 439.996094 C 503.507812 441.746094 502.488281 443.445312 501.386719 445.097656 C 500.28125 446.746094 499.101562 448.339844 497.84375 449.871094 C 496.582031 451.40625 495.253906 452.875 493.847656 454.277344 C 492.445312 455.679688 490.976562 457.011719 489.441406 458.273438 C 487.910156 459.53125 486.316406 460.710938 484.667969 461.816406 C 483.015625 462.917969 481.316406 463.9375 479.566406 464.875 C 477.816406 465.8125 476.023438 466.660156 474.191406 467.421875 C 472.359375 468.179688 470.492188 468.847656 468.59375 469.425781 C 466.695312 470.003906 464.773438 470.488281 462.828125 470.875 C 460.878906 471.265625 458.917969 471.558594 456.945312 471.753906 C 454.96875 471.949219 452.988281 472.050781 451.003906 472.050781 Z M 451.003906 359.082031 C 449.289062 359.082031 447.578125 359.167969 445.875 359.335938 C 444.167969 359.503906 442.472656 359.753906 440.789062 360.089844 C 439.109375 360.425781 437.449219 360.839844 435.804688 361.339844 C 434.164062 361.835938 432.554688 362.414062 430.96875 363.070312 C 429.382812 363.726562 427.835938 364.457031 426.324219 365.265625 C 424.8125 366.074219 423.34375 366.953125 421.917969 367.90625 C 420.492188 368.859375 419.117188 369.878906 417.789062 370.96875 C 416.464844 372.054688 415.195312 373.207031 413.984375 374.417969 C 412.769531 375.632812 411.621094 376.902344 410.53125 378.226562 C 409.445312 379.550781 408.425781 380.925781 407.472656 382.351562 C 406.519531 383.777344 405.636719 385.25 404.828125 386.761719 C 404.023438 388.273438 403.289062 389.820312 402.632812 391.40625 C 401.976562 392.988281 401.398438 394.601562 400.902344 396.242188 C 400.40625 397.882812 399.988281 399.546875 399.652344 401.226562 C 399.320312 402.910156 399.066406 404.601562 398.898438 406.308594 C 398.730469 408.015625 398.648438 409.726562 398.648438 411.441406 C 398.648438 413.15625 398.734375 414.867188 398.902344 416.574219 C 399.070312 418.28125 399.320312 419.976562 399.65625 421.65625 C 399.988281 423.339844 400.40625 425 400.902344 426.640625 C 401.402344 428.28125 401.976562 429.894531 402.632812 431.476562 C 403.289062 433.0625 404.023438 434.609375 404.832031 436.125 C 405.640625 437.636719 406.519531 439.105469 407.472656 440.53125 C 408.425781 441.957031 409.445312 443.332031 410.535156 444.65625 C 411.621094 445.984375 412.773438 447.25 413.984375 448.464844 C 415.199219 449.675781 416.46875 450.828125 417.792969 451.914062 C 419.117188 453.003906 420.492188 454.023438 421.917969 454.976562 C 423.34375 455.925781 424.816406 456.808594 426.328125 457.617188 C 427.839844 458.425781 429.386719 459.15625 430.972656 459.8125 C 432.554688 460.46875 434.167969 461.046875 435.808594 461.542969 C 437.449219 462.042969 439.113281 462.457031 440.792969 462.792969 C 442.476562 463.125 444.171875 463.378906 445.875 463.546875 C 447.582031 463.714844 449.292969 463.796875 451.007812 463.796875 C 452.722656 463.796875 454.433594 463.710938 456.140625 463.542969 C 457.847656 463.375 459.542969 463.125 461.222656 462.789062 C 462.90625 462.457031 464.566406 462.039062 466.207031 461.542969 C 467.847656 461.042969 469.460938 460.464844 471.046875 459.808594 C 472.628906 459.152344 474.175781 458.421875 475.691406 457.613281 C 477.203125 456.804688 478.671875 455.921875 480.097656 454.972656 C 481.523438 454.019531 482.898438 452.996094 484.222656 451.910156 C 485.546875 450.820312 486.816406 449.671875 488.03125 448.457031 C 489.242188 447.246094 490.394531 445.976562 491.480469 444.652344 C 492.566406 443.324219 493.589844 441.949219 494.539062 440.523438 C 495.492188 439.097656 496.375 437.628906 497.183594 436.117188 C 497.992188 434.605469 498.722656 433.054688 499.378906 431.472656 C 500.035156 429.886719 500.613281 428.273438 501.109375 426.632812 C 501.605469 424.992188 502.023438 423.332031 502.355469 421.648438 C 502.691406 419.96875 502.941406 418.273438 503.109375 416.566406 C 503.277344 414.859375 503.363281 413.148438 503.363281 411.433594 C 503.359375 409.71875 503.273438 408.011719 503.105469 406.304688 C 502.933594 404.597656 502.683594 402.90625 502.347656 401.222656 C 502.011719 399.542969 501.59375 397.882812 501.09375 396.242188 C 500.597656 394.601562 500.019531 392.992188 499.363281 391.40625 C 498.703125 389.824219 497.972656 388.277344 497.164062 386.765625 C 496.355469 385.253906 495.472656 383.785156 494.519531 382.359375 C 493.570312 380.933594 492.546875 379.558594 491.460938 378.234375 C 490.371094 376.910156 489.222656 375.640625 488.011719 374.429688 C 486.796875 373.21875 485.53125 372.066406 484.203125 370.980469 C 482.878906 369.890625 481.503906 368.871094 480.078125 367.917969 C 478.65625 366.964844 477.1875 366.085938 475.675781 365.277344 C 474.164062 364.46875 472.617188 363.734375 471.03125 363.078125 C 469.449219 362.421875 467.835938 361.84375 466.199219 361.34375 C 464.558594 360.847656 462.898438 360.429688 461.214844 360.09375 C 459.535156 359.757812 457.839844 359.503906 456.136719 359.335938 C 454.429688 359.164062 452.71875 359.078125 451.003906 359.078125 Z M 451.003906 359.082031 " fill-opacity="1" fill-rule="nonzero"/><path fill="#ffffff" d="M 395.101562 424.695312 C 394.832031 424.695312 394.5625 424.671875 394.296875 424.617188 C 394.03125 424.566406 393.769531 424.488281 393.519531 424.382812 C 393.269531 424.28125 393.03125 424.152344 392.804688 424.003906 C 392.582031 423.851562 392.371094 423.679688 392.179688 423.488281 C 391.988281 423.296875 391.816406 423.089844 391.664062 422.863281 C 391.515625 422.636719 391.386719 422.402344 391.285156 422.148438 C 391.179688 421.898438 391.101562 421.640625 391.046875 421.375 C 390.996094 421.109375 390.96875 420.839844 390.96875 420.570312 C 390.96875 419.71875 390.886719 418.878906 390.71875 418.042969 C 390.554688 417.210938 390.308594 416.402344 389.984375 415.617188 C 389.660156 414.832031 389.261719 414.085938 388.789062 413.378906 C 388.316406 412.671875 387.78125 412.019531 387.179688 411.417969 C 386.578125 410.816406 385.925781 410.28125 385.21875 409.808594 C 384.511719 409.335938 383.765625 408.9375 382.980469 408.613281 C 382.195312 408.289062 381.386719 408.042969 380.550781 407.875 C 379.71875 407.710938 378.878906 407.628906 378.027344 407.628906 C 377.179688 407.628906 376.335938 407.710938 375.503906 407.875 C 374.667969 408.042969 373.859375 408.289062 373.074219 408.613281 C 372.289062 408.9375 371.542969 409.335938 370.839844 409.808594 C 370.132812 410.28125 369.476562 410.816406 368.875 411.417969 C 368.277344 412.019531 367.738281 412.671875 367.265625 413.378906 C 366.796875 414.085938 366.398438 414.832031 366.070312 415.617188 C 365.746094 416.402344 365.5 417.210938 365.335938 418.042969 C 365.167969 418.878906 365.085938 419.71875 365.085938 420.570312 C 365.066406 421.105469 364.949219 421.617188 364.730469 422.105469 C 364.511719 422.59375 364.210938 423.023438 363.824219 423.394531 C 363.441406 423.765625 363 424.050781 362.503906 424.25 C 362.007812 424.453125 361.492188 424.550781 360.957031 424.550781 C 360.421875 424.550781 359.90625 424.453125 359.410156 424.25 C 358.914062 424.050781 358.472656 423.765625 358.085938 423.394531 C 357.703125 423.023438 357.402344 422.59375 357.183594 422.105469 C 356.964844 421.617188 356.84375 421.105469 356.824219 420.570312 C 356.824219 419.875 356.859375 419.183594 356.929688 418.492188 C 356.996094 417.800781 357.097656 417.113281 357.234375 416.433594 C 357.367188 415.75 357.539062 415.078125 357.738281 414.414062 C 357.941406 413.75 358.175781 413.097656 358.441406 412.457031 C 358.707031 411.8125 359.003906 411.1875 359.328125 410.574219 C 359.65625 409.960938 360.011719 409.367188 360.398438 408.789062 C 360.785156 408.210938 361.199219 407.65625 361.636719 407.117188 C 362.078125 406.582031 362.542969 406.070312 363.035156 405.578125 C 363.527344 405.085938 364.039062 404.621094 364.578125 404.179688 C 365.113281 403.738281 365.671875 403.328125 366.25 402.941406 C 366.824219 402.554688 367.421875 402.199219 368.035156 401.871094 C 368.644531 401.542969 369.273438 401.246094 369.914062 400.980469 C 370.554688 400.714844 371.207031 400.480469 371.875 400.28125 C 372.539062 400.078125 373.210938 399.910156 373.890625 399.773438 C 374.574219 399.640625 375.257812 399.539062 375.949219 399.46875 C 376.640625 399.402344 377.332031 399.367188 378.027344 399.367188 C 378.722656 399.367188 379.414062 399.402344 380.105469 399.46875 C 380.796875 399.539062 381.484375 399.640625 382.164062 399.773438 C 382.84375 399.910156 383.519531 400.078125 384.183594 400.28125 C 384.847656 400.480469 385.5 400.714844 386.140625 400.980469 C 386.78125 401.246094 387.410156 401.542969 388.023438 401.871094 C 388.632812 402.199219 389.230469 402.554688 389.804688 402.941406 C 390.382812 403.328125 390.941406 403.738281 391.476562 404.179688 C 392.015625 404.621094 392.527344 405.085938 393.019531 405.578125 C 393.511719 406.070312 393.976562 406.582031 394.417969 407.117188 C 394.855469 407.65625 395.269531 408.214844 395.65625 408.789062 C 396.042969 409.367188 396.398438 409.960938 396.726562 410.574219 C 397.054688 411.1875 397.351562 411.8125 397.617188 412.457031 C 397.882812 413.097656 398.113281 413.75 398.316406 414.414062 C 398.519531 415.078125 398.6875 415.75 398.820312 416.433594 C 398.957031 417.113281 399.058594 417.800781 399.128906 418.492188 C 399.195312 419.183594 399.230469 419.875 399.230469 420.570312 C 399.230469 420.839844 399.203125 421.109375 399.148438 421.375 C 399.097656 421.640625 399.019531 421.898438 398.914062 422.148438 C 398.8125 422.398438 398.683594 422.636719 398.535156 422.863281 C 398.382812 423.085938 398.210938 423.296875 398.019531 423.488281 C 397.828125 423.679688 397.621094 423.851562 397.394531 424 C 397.167969 424.152344 396.933594 424.277344 396.679688 424.382812 C 396.429688 424.484375 396.171875 424.566406 395.90625 424.617188 C 395.640625 424.671875 395.371094 424.695312 395.101562 424.695312 Z M 395.101562 424.695312 " fill-opacity="1" fill-rule="nonzero"/><path fill="#555ce4" d="M 559.640625 267.089844 C 559.640625 267.089844 566.835938 229.765625 502.609375 197.0625 C 438.8125 164.578125 361.710938 174.625 317.8125 189.121094 C 284.21875 200.1875 92.785156 274.609375 249.953125 313.292969 C 268.722656 317.914062 302.398438 317.910156 337.925781 315.367188 C 331.667969 319.042969 328.292969 322.347656 328.929688 324.773438 C 330.699219 331.523438 362.253906 329.105469 399.410156 319.375 C 425.414062 312.558594 447.257812 303.972656 457.421875 297.109375 C 460.527344 296.203125 463.558594 295.09375 466.519531 293.789062 C 473.738281 321.222656 524.996094 356.597656 536.546875 352.265625 C 548.101562 347.933594 613.066406 299.578125 559.640625 267.089844 Z M 559.640625 267.089844 " fill-opacity="1" fill-rule="nonzero"/></svg>