<svg xmlns="http://www.w3.org/2000/svg" xmlns:xlink="http://www.w3.org/1999/xlink" width="1000" zoomAndPan="magnify" viewBox="0 0 750 749.999995" height="1000" preserveAspectRatio="xMidYMid meet" version="1.0"><defs><g/><clipPath id="cb332be5c8"><path d="M 217.234375 11.492188 L 532 11.492188 L 532 494 L 217.234375 494 Z M 217.234375 11.492188 " clip-rule="nonzero"/></clipPath><clipPath id="cb51ffcb5a"><path d="M 357 271 L 392 271 L 392 609.992188 L 357 609.992188 Z M 357 271 " clip-rule="nonzero"/></clipPath><clipPath id="09946e7787"><path d="M 252.160156 490.082031 L 497.410156 490.082031 L 497.410156 702.332031 L 252.160156 702.332031 Z M 252.160156 490.082031 " clip-rule="nonzero"/></clipPath><clipPath id="0e37bec22a"><path d="M 347.457031 270.542969 L 401.683594 270.542969 L 401.683594 516.8125 L 347.457031 516.8125 Z M 347.457031 270.542969 " clip-rule="nonzero"/></clipPath></defs><g fill="#ffffff" fill-opacity="1"><g transform="translate(239.588398, 729.89879)"><g><path d="M 269.898438 -244.238281 L 192 -244.238281 L 136.09375 -55.445312 L 79.730469 -244.238281 L 0 -244.238281 L 95.769531 0 L 174.585938 0 Z M 269.898438 -244.238281 "/></g></g></g><g clip-path="url(#cb332be5c8)"><path fill="#00ce81" d="M 374.507812 11.53125 C 281.828125 52.308594 217.117188 144.925781 217.117188 252.699219 C 217.117188 360.445312 281.828125 453.0625 374.507812 493.871094 C 467.183594 453.0625 531.894531 360.445312 531.894531 252.699219 C 531.894531 144.925781 467.183594 52.308594 374.507812 11.53125 " fill-opacity="1" fill-rule="nonzero"/></g><g clip-path="url(#cb51ffcb5a)"><path stroke-linecap="round" transform="matrix(0.296569, 0, 0, -0.296569, -275.662602, 931.488071)" fill="none" stroke-linejoin="miter" d="M 2192.30431 2167.704253 L 2192.30431 1139.896301 " stroke="#99d76f" stroke-width="113.419998" stroke-opacity="1" stroke-miterlimit="10"/></g><g clip-path="url(#09946e7787)"><path fill="#00ce81" d="M 497.410156 489.839844 L 374.730469 702.324219 L 252.054688 489.839844 Z M 497.410156 489.839844 " fill-opacity="1" fill-rule="nonzero"/></g><g clip-path="url(#0e37bec22a)"><path fill="#ffffff" d="M 347.457031 270.542969 L 401.683594 270.542969 L 401.683594 516.875 L 347.457031 516.875 Z M 347.457031 270.542969 " fill-opacity="1" fill-rule="nonzero"/></g></svg>